<?xml version="1.0" standalone="no"?>
<!DOCTYPE svg PUBLIC "-//W3C//DTD SVG 1.1//EN" "http://www.w3.org/Graphics/SVG/1.1/DTD/svg11.dtd" >
<svg xmlns="http://www.w3.org/2000/svg" xmlns:xlink="http://www.w3.org/1999/xlink" version="1.1">
<metadata></metadata>
<defs>
<font id="amiriregular" horiz-adv-x="1200" >
<font-face units-per-em="2048" ascent="1638" descent="-410" />
<missing-glyph horiz-adv-x="600" />
<glyph unicode="&#x671;" horiz-adv-x="446" arabic-form="isolated" d="M-58 1684q85 166 157 129q23 -13 50 -21q70 102 112 140q56 49 109 50q80 0 95 -67q12 -59 -31 -128q-117 -157 -265 -147q-69 5 -133 48q-25 14 -47 -6l-17 -15q-18 -15 -26 -12q-12 8 -4 29zM123 1184q-4 38 9 69l51 119q43 101 54 5l47 -503q76 -678 -18 -860 q-12 -23 -21.5 -11.5t-8.5 33.5q3 172 -25 387q-1 9 -44 390zM191 1784q89 -15 180 30q15 72 -43 75q-45 0 -100 -57q-23 -24 -37 -48z" />
<glyph unicode="&#x671;" horiz-adv-x="570" arabic-form="final" d="M2 1684q85 166 157 129q23 -13 50 -21q70 102 112 140q56 49 109 50q80 0 95 -67q12 -59 -31 -128q-117 -157 -265 -147q-69 5 -133 48q-25 14 -47 -6l-17 -15q-18 -15 -26 -12q-12 8 -4 29zM186 1316q-6 33 6 53l65 106q22 36 31 -31q38 -317 49 -543q21 -427 28 -515 q15 -190 205 -201q53 -3 41 -75q-19 -110 -41 -110q-269 0 -288 249q-16 210 -22 422.5t-24.5 344t-49.5 300.5zM251 1784q89 -15 180 30q15 72 -43 75q-45 0 -100 -57q-23 -24 -37 -48z" />
<glyph unicode="&#x67b;" horiz-adv-x="1897" arabic-form="isolated" d="M162 484q32 75 110 160q13 14 26 10t15.5 -17t-6.5 -23q-37 -41 -58.5 -88.5t-11.5 -82.5q72 -264 595.5 -256t857.5 201q-7 77 -98 195q-6 8 4.5 55t46.5 123q13 28 38 0q58 -66 78 -184.5t-4.5 -230t-81.5 -144.5q-328 -191 -819.5 -215.5t-659.5 183.5 q-109 134 -32 314zM867 -429l100 149q5 8 17 4q81 -28 145 -85q9 -8 3 -18l-66 -104q56 -26 103 -68q9 -8 3 -18l-98 -155q-6 -9 -20.5 3t-143.5 90q-8 5 -3 12l74 110q-36 23 -111 68q-8 5 -3 12z" />
<glyph unicode="&#x67b;" horiz-adv-x="1810" arabic-form="final" d="M151 83q-47 120 0 249t94 188q16 20 32 4.5t0 -37.5q-73 -102 -57 -171q68 -286 620 -270q372 11 686 140q64 26 84 122q6 29 37 26q22 -2 23 -44q2 -97 140 -105q53 -3 46 -66q-13 -119 -46 -119q-91 0 -166 94q-4 5 -26 -10q-367 -245 -868.5 -246t-598.5 245z M767 -479l100 149q5 8 17 4q81 -28 145 -85q9 -8 3 -18l-66 -104q56 -26 103 -68q9 -8 3 -18l-98 -155q-6 -9 -20.5 3t-143.5 90q-8 5 -3 12l74 110q-36 23 -111 68q-8 5 -3 12z" />
<glyph unicode="&#x67b;" horiz-adv-x="390" arabic-form="initial" d="M-43 104q-16 83 43 81q121 -5 182 65q3 4 1 14q-12 59 -55 119q-18 25 -6 50l58 127q18 39 38 1q81 -149 30 -360q-49 -201 -248 -201q-22 0 -43 104zM37 -379l100 149q5 8 17 4q81 -28 145 -85q9 -8 3 -18l-66 -104q56 -26 103 -68q9 -8 3 -18l-98 -155q-6 -9 -20.5 3 t-143.5 90q-8 5 -3 12l74 110q-36 23 -111 68q-8 5 -3 12z" />
<glyph unicode="&#x67b;" horiz-adv-x="500" arabic-form="medial" d="M-44 116q-5 21 8.5 44t35.5 25q228 17 304 134q11 17 28 17t18.5 -19t4.5 -25q67 -92 145 -107q34 -8 38 -24t0 -48q-15 -113 -38 -113q-110 -1 -222 124q-91 -111 -278 -124q-19 -1 -26 31zM127 -379l100 149q5 8 17 4q81 -28 145 -85q9 -8 3 -18l-66 -104 q56 -26 103 -68q9 -8 3 -18l-98 -155q-6 -9 -20.5 3t-143.5 90q-8 5 -3 12l74 110q-36 23 -111 68q-8 5 -3 12z" />
<glyph unicode="&#x67e;" horiz-adv-x="1897" arabic-form="isolated" d="M162 484q32 75 110 160q13 14 26 10t15.5 -17t-6.5 -23q-37 -41 -58.5 -88.5t-11.5 -82.5q72 -264 595.5 -256t857.5 201q-7 77 -98 195q-6 8 4.5 55t46.5 123q13 28 38 0q58 -66 78 -184.5t-4.5 -230t-81.5 -144.5q-328 -191 -819.5 -215.5t-659.5 183.5 q-109 134 -32 314zM787 -379l98 155q6 9 20 -3q12 -10 101 -64l72 114q6 9 20.5 -3t143.5 -90q8 -5 3 -12l-100 -149q-5 -8 -17 -4q-59 20 -109 56l-67 -99q-5 -8 -17 -4q-81 28 -145 85q-9 8 -3 18zM928 -592l98 155q6 9 20.5 -3t143.5 -90q8 -5 3 -12l-100 -149 q-5 -8 -17 -4q-81 28 -145 85q-9 8 -3 18z" />
<glyph unicode="&#x67e;" horiz-adv-x="1810" arabic-form="final" d="M151 83q-47 120 0 249t94 188q16 20 32 4.5t0 -37.5q-73 -102 -57 -171q68 -286 620 -270q372 11 686 140q64 26 84 122q6 29 37 26q22 -2 23 -44q2 -97 140 -105q53 -3 46 -66q-13 -119 -46 -119q-91 0 -166 94q-4 5 -26 -10q-367 -245 -868.5 -246t-598.5 245z M676 -439l98 155q6 9 20 -3q12 -10 101 -64l72 114q6 9 20.5 -3t143.5 -90q8 -5 3 -12l-100 -149q-5 -8 -17 -4q-59 20 -109 56l-67 -99q-5 -8 -17 -4q-81 28 -145 85q-9 8 -3 18zM817 -652l98 155q6 9 20.5 -3t143.5 -90q8 -5 3 -12l-100 -149q-5 -8 -17 -4q-81 28 -145 85 q-9 8 -3 18z" />
<glyph unicode="&#x67e;" horiz-adv-x="390" arabic-form="initial" d="M-43 104q-16 83 43 81q121 -5 182 65q3 4 1 14q-12 59 -55 119q-18 25 -6 50l58 127q18 39 38 1q81 -149 30 -360q-49 -201 -248 -201q-22 0 -43 104zM7 -429l98 155q6 9 20 -3q12 -10 101 -64l72 114q6 9 20.5 -3t143.5 -90q8 -5 3 -12l-100 -149q-5 -8 -17 -4 q-59 20 -109 56l-67 -99q-5 -8 -17 -4q-81 28 -145 85q-9 8 -3 18zM148 -642l98 155q6 9 20.5 -3t143.5 -90q8 -5 3 -12l-100 -149q-5 -8 -17 -4q-81 28 -145 85q-9 8 -3 18z" />
<glyph unicode="&#x67e;" horiz-adv-x="500" arabic-form="medial" d="M-44 116q-5 21 8.5 44t35.5 25q228 17 304 134q11 17 28 17t18.5 -19t4.5 -25q67 -92 145 -107q34 -8 38 -24t0 -48q-15 -113 -38 -113q-110 -1 -222 124q-91 -111 -278 -124q-19 -1 -26 31zM47 -329l98 155q6 9 20 -3q12 -10 101 -64l72 114q6 9 20.5 -3t143.5 -90 q8 -5 3 -12l-100 -149q-5 -8 -17 -4q-59 20 -109 56l-67 -99q-5 -8 -17 -4q-81 28 -145 85q-9 8 -3 18zM188 -542l98 155q6 9 20.5 -3t143.5 -90q8 -5 3 -12l-100 -149q-5 -8 -17 -4q-81 28 -145 85q-9 8 -3 18z" />
<glyph unicode="&#x680;" horiz-adv-x="1897" arabic-form="isolated" d="M162 484q32 75 110 160q13 14 26 10t15.5 -17t-6.5 -23q-37 -41 -58.5 -88.5t-11.5 -82.5q72 -264 595.5 -256t857.5 201q-7 77 -98 195q-6 8 4.5 55t46.5 123q13 28 38 0q58 -66 78 -184.5t-4.5 -230t-81.5 -144.5q-328 -191 -819.5 -215.5t-659.5 183.5 q-109 134 -32 314zM766 -330l100 149q5 8 17 4q68 -23 124 -67l74 110q5 8 17 4q81 -28 145 -85q9 -8 3 -18l-93 -147q65 -27 119 -75q9 -8 3 -18l-98 -155q-6 -9 -20 3q-13 11 -116 73l-77 -122q-6 -9 -20.5 3t-143.5 90q-8 5 -3 12l99 148q-33 22 -127 79q-8 5 -3 12z M939 -426q53 -22 98 -57l73 109l1 1q-28 19 -100 62z" />
<glyph unicode="&#x680;" horiz-adv-x="1810" arabic-form="final" d="M151 83q-47 120 0 249t94 188q16 20 32 4.5t0 -37.5q-73 -102 -57 -171q68 -286 620 -270q372 11 686 140q64 26 84 122q6 29 37 26q22 -2 23 -44q2 -97 140 -105q53 -3 46 -66q-13 -119 -46 -119q-91 0 -166 94q-4 5 -26 -10q-367 -245 -868.5 -246t-598.5 245z M655 -390l100 149q5 8 17 4q68 -23 124 -67l74 110q5 8 17 4q81 -28 145 -85q9 -8 3 -18l-93 -147q65 -27 119 -75q9 -8 3 -18l-98 -155q-6 -9 -20 3q-13 11 -116 73l-77 -122q-6 -9 -20.5 3t-143.5 90q-8 5 -3 12l99 148q-33 22 -127 79q-8 5 -3 12zM828 -486 q53 -22 98 -57l73 109l1 1q-28 19 -100 62z" />
<glyph unicode="&#x680;" horiz-adv-x="390" arabic-form="initial" d="M-43 104q-16 83 43 81q121 -5 182 65q3 4 1 14q-12 59 -55 119q-18 25 -6 50l58 127q18 39 38 1q81 -149 30 -360q-49 -201 -248 -201q-22 0 -43 104zM-14 -380l100 149q5 8 17 4q68 -23 124 -67l74 110q5 8 17 4q81 -28 145 -85q9 -8 3 -18l-93 -147q65 -27 119 -75 q9 -8 3 -18l-98 -155q-6 -9 -20 3q-13 11 -116 73l-77 -122q-6 -9 -20.5 3t-143.5 90q-8 5 -3 12l99 148q-33 22 -127 79q-8 5 -3 12zM159 -476q53 -22 98 -57l73 109l1 1q-28 19 -100 62z" />
<glyph unicode="&#x680;" horiz-adv-x="500" arabic-form="medial" d="M-44 116q-5 21 8.5 44t35.5 25q228 17 304 134q11 17 28 17t18.5 -19t4.5 -25q67 -92 145 -107q34 -8 38 -24t0 -48q-15 -113 -38 -113q-110 -1 -222 124q-91 -111 -278 -124q-19 -1 -26 31zM26 -280l100 149q5 8 17 4q68 -23 124 -67l74 110q5 8 17 4q81 -28 145 -85 q9 -8 3 -18l-93 -147q65 -27 119 -75q9 -8 3 -18l-98 -155q-6 -9 -20 3q-13 11 -116 73l-77 -122q-6 -9 -20.5 3t-143.5 90q-8 5 -3 12l99 148q-33 22 -127 79q-8 5 -3 12zM199 -376q53 -22 98 -57l73 109l1 1q-28 19 -100 62z" />
<glyph unicode="&#x67a;" horiz-adv-x="1897" arabic-form="isolated" d="M162 484q32 75 110 160q13 14 26 10t15.5 -17t-6.5 -23q-37 -41 -58.5 -88.5t-11.5 -82.5q72 -264 595.5 -256t857.5 201q-7 77 -98 195q-6 8 4.5 55t46.5 123q13 28 38 0q58 -66 78 -184.5t-4.5 -230t-81.5 -144.5q-328 -191 -819.5 -215.5t-659.5 183.5 q-109 134 -32 314zM772 1031l100 149q5 8 17 4q81 -28 145 -85q9 -8 3 -18l-66 -104q56 -26 103 -68q9 -8 3 -18l-98 -155q-6 -9 -20.5 3t-143.5 90q-8 5 -3 12l74 110q-36 23 -111 68q-8 5 -3 12z" />
<glyph unicode="&#x67a;" horiz-adv-x="1810" arabic-form="final" d="M151 83q-47 120 0 249t94 188q16 20 32 4.5t0 -37.5q-73 -102 -57 -171q68 -286 620 -270q372 11 686 140q64 26 84 122q6 29 37 26q22 -2 23 -44q2 -97 140 -105q53 -3 46 -66q-13 -119 -46 -119q-91 0 -166 94q-4 5 -26 -10q-367 -245 -868.5 -246t-598.5 245z M772 1031l100 149q5 8 17 4q81 -28 145 -85q9 -8 3 -18l-66 -104q56 -26 103 -68q9 -8 3 -18l-98 -155q-6 -9 -20.5 3t-143.5 90q-8 5 -3 12l74 110q-36 23 -111 68q-8 5 -3 12z" />
<glyph unicode="&#x67a;" horiz-adv-x="390" arabic-form="initial" d="M-43 104q-16 83 43 81q121 -5 182 65q3 4 1 14q-12 59 -55 119q-18 25 -6 50l58 127q18 39 38 1q81 -149 30 -360q-49 -201 -248 -201q-22 0 -43 104zM2 1061l100 149q5 8 17 4q81 -28 145 -85q9 -8 3 -18l-66 -104q56 -26 103 -68q9 -8 3 -18l-98 -155q-6 -9 -20.5 3 t-143.5 90q-8 5 -3 12l74 110q-36 23 -111 68q-8 5 -3 12z" />
<glyph unicode="&#x67a;" horiz-adv-x="500" arabic-form="medial" d="M-44 116q-5 21 8.5 44t35.5 25q228 17 304 134q11 17 28 17t18.5 -19t4.5 -25q67 -92 145 -107q34 -8 38 -24t0 -48q-15 -113 -38 -113q-110 -1 -222 124q-91 -111 -278 -124q-19 -1 -26 31zM77 1031l100 149q5 8 17 4q81 -28 145 -85q9 -8 3 -18l-66 -104 q56 -26 103 -68q9 -8 3 -18l-98 -155q-6 -9 -20.5 3t-143.5 90q-8 5 -3 12l74 110q-36 23 -111 68q-8 5 -3 12z" />
<glyph unicode="&#x67f;" horiz-adv-x="1897" arabic-form="isolated" d="M162 484q32 75 110 160q13 14 26 10t15.5 -17t-6.5 -23q-37 -41 -58.5 -88.5t-11.5 -82.5q72 -264 595.5 -256t857.5 201q-7 77 -98 195q-6 8 4.5 55t46.5 123q13 28 38 0q58 -66 78 -184.5t-4.5 -230t-81.5 -144.5q-328 -191 -819.5 -215.5t-659.5 183.5 q-109 134 -32 314zM670 1080l100 149q5 8 17 4q68 -23 124 -67l74 110q5 8 17 4q81 -28 145 -85q9 -8 3 -18l-93 -147q65 -27 119 -75q9 -8 3 -18l-98 -155q-6 -9 -20 3q-13 11 -116 73l-77 -122q-6 -9 -20.5 3t-143.5 90q-8 5 -3 12l99 148q-33 22 -127 79q-8 5 -3 12z M843 984q53 -22 98 -57l73 109l1 1q-28 19 -100 62z" />
<glyph unicode="&#x67f;" horiz-adv-x="1810" arabic-form="final" d="M151 83q-47 120 0 249t94 188q16 20 32 4.5t0 -37.5q-73 -102 -57 -171q68 -286 620 -270q372 11 686 140q64 26 84 122q6 29 37 26q22 -2 23 -44q2 -97 140 -105q53 -3 46 -66q-13 -119 -46 -119q-91 0 -166 94q-4 5 -26 -10q-367 -245 -868.5 -246t-598.5 245z M670 1080l100 149q5 8 17 4q68 -23 124 -67l74 110q5 8 17 4q81 -28 145 -85q9 -8 3 -18l-93 -147q65 -27 119 -75q9 -8 3 -18l-98 -155q-6 -9 -20 3q-13 11 -116 73l-77 -122q-6 -9 -20.5 3t-143.5 90q-8 5 -3 12l99 148q-33 22 -127 79q-8 5 -3 12zM843 984q53 -22 98 -57 l73 109l1 1q-28 19 -100 62z" />
<glyph unicode="&#x67f;" horiz-adv-x="390" arabic-form="initial" d="M-104 1010l100 149q5 8 17 4q68 -23 124 -67l74 110q5 8 17 4q81 -28 145 -85q9 -8 3 -18l-93 -147q65 -27 119 -75q9 -8 3 -18l-98 -155q-6 -9 -20 3q-13 11 -116 73l-77 -122q-6 -9 -20.5 3t-143.5 90q-8 5 -3 12l99 148q-33 22 -127 79q-8 5 -3 12zM-43 104 q-16 83 43 81q121 -5 182 65q3 4 1 14q-12 59 -55 119q-18 25 -6 50l58 127q18 39 38 1q81 -149 30 -360q-49 -201 -248 -201q-22 0 -43 104zM69 914q53 -22 98 -57l73 109l1 1q-28 19 -100 62z" />
<glyph unicode="&#x67f;" horiz-adv-x="500" arabic-form="medial" d="M-44 116q-5 21 8.5 44t35.5 25q228 17 304 134q11 17 28 17t18.5 -19t4.5 -25q67 -92 145 -107q34 -8 38 -24t0 -48q-15 -113 -38 -113q-110 -1 -222 124q-91 -111 -278 -124q-19 -1 -26 31zM-44 950l100 149q5 8 17 4q68 -23 124 -67l74 110q5 8 17 4q81 -28 145 -85 q9 -8 3 -18l-93 -147q65 -27 119 -75q9 -8 3 -18l-98 -155q-6 -9 -20 3q-13 11 -116 73l-77 -122q-6 -9 -20.5 3t-143.5 90q-8 5 -3 12l99 148q-33 22 -127 79q-8 5 -3 12zM129 854q53 -22 98 -57l73 109l1 1q-28 19 -100 62z" />
<glyph unicode="&#x679;" horiz-adv-x="1897" arabic-form="isolated" d="M162 484q32 75 110 160q13 14 26 10t15.5 -17t-6.5 -23q-37 -41 -58.5 -88.5t-11.5 -82.5q72 -264 595.5 -256t857.5 201q-7 77 -98 195q-6 8 4.5 55t46.5 123q13 28 38 0q58 -66 78 -184.5t-4.5 -230t-81.5 -144.5q-328 -191 -819.5 -215.5t-659.5 183.5 q-109 134 -32 314zM668 754.5q-7 15.5 4 13.5q76 -8 156 -1l54 53q7 145 -34 401q-1 5 10 33t20 32q16 8 20 -24q41 -294 21 -413q63 68 124 113t107 27q46 -17 68.5 -72t-53.5 -151q-16 -20 -130.5 -55t-237.5 -41q-53 9 -87.5 39t-41.5 45.5zM886 772q138 19 270 84 q-34 69 -114 40q-38 -14 -156 -124z" />
<glyph unicode="&#x679;" horiz-adv-x="1810" arabic-form="final" d="M151 83q-47 120 0 249t94 188q16 20 32 4.5t0 -37.5q-73 -102 -57 -171q68 -286 620 -270q372 11 686 140q64 26 84 122q6 29 37 26q22 -2 23 -44q2 -97 140 -105q53 -3 46 -66q-13 -119 -46 -119q-91 0 -166 94q-4 5 -26 -10q-367 -245 -868.5 -246t-598.5 245z M668 754.5q-7 15.5 4 13.5q76 -8 156 -1l54 53q7 145 -34 401q-1 5 10 33t20 32q16 8 20 -24q41 -294 21 -413q63 68 124 113t107 27q46 -17 68.5 -72t-53.5 -151q-16 -20 -130.5 -55t-237.5 -41q-53 9 -87.5 39t-41.5 45.5zM886 772q138 19 270 84q-34 69 -114 40 q-38 -14 -156 -124z" />
<glyph unicode="&#x679;" horiz-adv-x="390" arabic-form="initial" d="M-102 784.5q-7 15.5 4 13.5q76 -8 156 -1l54 53q7 145 -34 401q-1 5 10 33t20 32q16 8 20 -24q41 -294 21 -413q63 68 124 113t107 27q46 -17 68.5 -72t-53.5 -151q-16 -20 -130.5 -55t-237.5 -41q-53 9 -87.5 39t-41.5 45.5zM-43 104q-16 83 43 81q121 -5 182 65 q3 4 1 14q-12 59 -55 119q-18 25 -6 50l58 127q18 39 38 1q81 -149 30 -360q-49 -201 -248 -201q-22 0 -43 104zM116 802q138 19 270 84q-34 69 -114 40q-38 -14 -156 -124z" />
<glyph unicode="&#x679;" horiz-adv-x="500" arabic-form="medial" d="M-44 116q-5 21 8.5 44t35.5 25q228 17 304 134q11 17 28 17t18.5 -19t4.5 -25q67 -92 145 -107q34 -8 38 -24t0 -48q-15 -113 -38 -113q-110 -1 -222 124q-91 -111 -278 -124q-19 -1 -26 31zM-27 754.5q-7 15.5 4 13.5q76 -8 156 -1l54 53q7 145 -34 401q-1 5 10 33 t20 32q16 8 20 -24q41 -294 21 -413q63 68 124 113t107 27q46 -17 68.5 -72t-53.5 -151q-16 -20 -130.5 -55t-237.5 -41q-53 9 -87.5 39t-41.5 45.5zM191 772q138 19 270 84q-34 69 -114 40q-38 -14 -156 -124z" />
<glyph unicode="&#x6a4;" horiz-adv-x="2015" arabic-form="isolated" d="M131 306q-6 56 15 158.5t88 196.5q10 14 23 12.5t17.5 -14t-3.5 -25.5q-146 -235 -1 -339q213 -154 674 -99q377 45 755 238q111 56 127 130q-9 50 -53 85q-4 4 -11 -9q-56 -108 -140 -120q-166 -24 -193 131q-18 105 117 313q34 52 85 68q83 26 162 -100.5t92 -355.5 q5 -84 -20 -142q-54 -128 -252.5 -231t-456.5 -161t-473 -59q-517 -3 -552 323zM1068 1320l100 149q5 8 17 4q59 -20 109 -56l67 99q5 8 17 4q81 -28 145 -85q9 -8 3 -18l-98 -155q-6 -9 -20 3q-12 10 -101 64l-72 -114q-6 -9 -20.5 3t-143.5 90q-8 5 -3 12zM1120 1580 l100 149q5 8 17 4q81 -28 145 -85q9 -8 3 -18l-98 -155q-6 -9 -20.5 3t-143.5 90q-8 5 -3 12zM1536 769q-10 -18 2 -29q58 -50 114 3q20 19 -2 38q-73 62 -114 -12z" />
<glyph unicode="&#x6a4;" horiz-adv-x="2060" arabic-form="final" d="M130 143q0 128 121 326q8 13 21.5 13t20 -11.5t-2.5 -26.5q-82 -145 -47 -210q117 -216 524 -209q475 8 775 125q-74 54 -49.5 174t115.5 254q129 191 218 112q112 -100 74 -318q-13 -74 -62 -168q76 -30 222 -19q50 3 50 -63q0 -119 -50 -122q-218 -15 -357 52 q-123 -84 -325 -146q-438 -133 -824 -80q-201 28 -312.5 108.5t-111.5 208.5zM1179 970l100 149q5 8 17 4q59 -20 109 -56l67 99q5 8 17 4q81 -28 145 -85q9 -8 3 -18l-98 -155q-6 -9 -20 3q-12 10 -101 64l-72 -114q-6 -9 -20.5 3t-143.5 90q-8 5 -3 12zM1231 1230l100 149 q5 8 17 4q81 -28 145 -85q9 -8 3 -18l-98 -155q-6 -9 -20.5 3t-143.5 90q-8 5 -3 12zM1580 354q10 -34 39 -62.5t58 -38.5t77 15t63 52q-5 179 -96 189q-83 10 -141 -155z" />
<glyph unicode="&#x6a4;" horiz-adv-x="605" arabic-form="initial" d="M-39.5 138.5q10.5 44.5 39.5 46.5q256 17 385 146q-5 61 -19 81t-23 18t-12 -9q-35 -89 -106 -105q-225 -48 -206 174q9 109 81 229t136 119q27 0 66 -34q183 -161 173 -405q-5 -129 -63 -205q-150 -194 -412 -194q-26 -1 -38 46.5t-1.5 92zM-1 1120l100 149q5 8 17 4 q59 -20 109 -56l67 99q5 8 17 4q81 -28 145 -85q9 -8 3 -18l-98 -155q-6 -9 -20 3q-12 10 -101 64l-72 -114q-6 -9 -20.5 3t-143.5 90q-8 5 -3 12zM51 1380l100 149q5 8 17 4q81 -28 145 -85q9 -8 3 -18l-98 -155q-6 -9 -20.5 3t-143.5 90q-8 5 -3 12zM112 537q-1 -11 3 -12 q40 -12 83 -6t55 25q-47 74 -85 72q-47 -2 -56 -79z" />
<glyph unicode="&#x6a4;" horiz-adv-x="775" arabic-form="medial" d="M-37 135.5q10 45.5 37 49.5q116 17 217 52q-15 91 24 195q63 170 231 296q64 48 107 48q12 0 20 -4q49 -30 63 -112q27 -157 -35 -293q-30 -66 -74 -131q127 -47 222 -51q19 -1 23 -51q12 -131 -23 -134q-168 -17 -423 118q-74 -36 -194.5 -76.5t-157.5 -41.5 q-25 -1 -36 44.5t-1 91zM179 1170l100 149q5 8 17 4q59 -20 109 -56l67 99q5 8 17 4q81 -28 145 -85q9 -8 3 -18l-98 -155q-6 -9 -20 3q-12 10 -101 64l-72 -114q-6 -9 -20.5 3t-143.5 90q-8 5 -3 12zM231 1430l100 149q5 8 17 4q81 -28 145 -85q9 -8 3 -18l-98 -155 q-6 -9 -20.5 3t-143.5 90q-8 5 -3 12zM309 455q-23 -29 22 -90t105 -61t135 78q5 158 -84 178q-97 8 -178 -105z" />
<glyph unicode="&#x6a6;" horiz-adv-x="2015" arabic-form="isolated" d="M131 306q-6 56 15 158.5t88 196.5q10 14 23 12.5t17.5 -14t-3.5 -25.5q-146 -235 -1 -339q213 -154 674 -99q377 45 755 238q111 56 127 130q-9 50 -53 85q-4 4 -11 -9q-56 -108 -140 -120q-166 -24 -193 131q-18 105 117 313q34 52 85 68q83 26 162 -100.5t92 -355.5 q5 -84 -20 -142q-54 -128 -252.5 -231t-456.5 -161t-473 -59q-517 -3 -552 323zM1025 1560l100 149q5 8 17 4q68 -23 124 -67l74 110q5 8 17 4q81 -28 145 -85q9 -8 3 -18l-93 -147q65 -27 119 -75q9 -8 3 -18l-98 -155q-6 -9 -20 3q-13 11 -116 73l-77 -122q-6 -9 -20.5 3 t-143.5 90q-8 5 -3 12l99 148q-33 22 -127 79q-8 5 -3 12zM1198 1464q53 -22 98 -57l73 109l1 1q-28 19 -100 62zM1536 769q-10 -18 2 -29q58 -50 114 3q20 19 -2 38q-73 62 -114 -12z" />
<glyph unicode="&#x6a6;" horiz-adv-x="2060" arabic-form="final" d="M130 143q0 128 121 326q8 13 21.5 13t20 -11.5t-2.5 -26.5q-82 -145 -47 -210q117 -216 524 -209q475 8 775 125q-74 54 -49.5 174t115.5 254q129 191 218 112q112 -100 74 -318q-13 -74 -62 -168q76 -30 222 -19q50 3 50 -63q0 -119 -50 -122q-218 -15 -357 52 q-123 -84 -325 -146q-438 -133 -824 -80q-201 28 -312.5 108.5t-111.5 208.5zM1136 1210l100 149q5 8 17 4q68 -23 124 -67l74 110q5 8 17 4q81 -28 145 -85q9 -8 3 -18l-93 -147q65 -27 119 -75q9 -8 3 -18l-98 -155q-6 -9 -20 3q-13 11 -116 73l-77 -122q-6 -9 -20.5 3 t-143.5 90q-8 5 -3 12l99 148q-33 22 -127 79q-8 5 -3 12zM1309 1114q53 -22 98 -57l73 109l1 1q-28 19 -100 62zM1580 354q10 -34 39 -62.5t58 -38.5t77 15t63 52q-5 179 -96 189q-83 10 -141 -155z" />
<glyph unicode="&#x6a6;" horiz-adv-x="605" arabic-form="initial" d="M-44 1360l100 149q5 8 17 4q68 -23 124 -67l74 110q5 8 17 4q81 -28 145 -85q9 -8 3 -18l-93 -147q65 -27 119 -75q9 -8 3 -18l-98 -155q-6 -9 -20 3q-13 11 -116 73l-77 -122q-6 -9 -20.5 3t-143.5 90q-8 5 -3 12l99 148q-33 22 -127 79q-8 5 -3 12zM-39.5 138.5 q10.5 44.5 39.5 46.5q256 17 385 146q-5 61 -19 81t-23 18t-12 -9q-35 -89 -106 -105q-225 -48 -206 174q9 109 81 229t136 119q27 0 66 -34q183 -161 173 -405q-5 -129 -63 -205q-150 -194 -412 -194q-26 -1 -38 46.5t-1.5 92zM112 537q-1 -11 3 -12q40 -12 83 -6t55 25 q-47 74 -85 72q-47 -2 -56 -79zM129 1264q53 -22 98 -57l73 109l1 1q-28 19 -100 62z" />
<glyph unicode="&#x6a6;" horiz-adv-x="775" arabic-form="medial" d="M-37 135.5q10 45.5 37 49.5q116 17 217 52q-15 91 24 195q63 170 231 296q64 48 107 48q12 0 20 -4q49 -30 63 -112q27 -157 -35 -293q-30 -66 -74 -131q127 -47 222 -51q19 -1 23 -51q12 -131 -23 -134q-168 -17 -423 118q-74 -36 -194.5 -76.5t-157.5 -41.5 q-25 -1 -36 44.5t-1 91zM136 1410l100 149q5 8 17 4q68 -23 124 -67l74 110q5 8 17 4q81 -28 145 -85q9 -8 3 -18l-93 -147q65 -27 119 -75q9 -8 3 -18l-98 -155q-6 -9 -20 3q-13 11 -116 73l-77 -122q-6 -9 -20.5 3t-143.5 90q-8 5 -3 12l99 148q-33 22 -127 79q-8 5 -3 12 zM309 455q-23 -29 22 -90t105 -61t135 78q5 158 -84 178q-97 8 -178 -105zM309 1314q53 -22 98 -57l73 109l1 1q-28 19 -100 62z" />
<glyph unicode="&#x684;" horiz-adv-x="1355" arabic-form="isolated" d="M154 -290q95 416 496 608q-277 67 -415 -14q-12 -7 -23.5 -4.5t-11.5 13.5q2 48 21 101q38 107 197 116q79 4 252 -30t292.5 -32t294.5 32q60 10 39 -37l-49 -110q-8 -17 -23 -19q-490 -65 -686 -193q-385 -252 -301 -608q46 -198 296 -308q135 -59 428 -76.5t544 5.5 q32 3 41 -8.5t-0.5 -25.5t-25.5 -19q-124 -36 -195 -79q-105 -63 -130 -65q-602 -53 -869 142t-172 611zM667 -249l100 149q5 8 17 4q81 -28 145 -85q9 -8 3 -18l-66 -104q56 -26 103 -68q9 -8 3 -18l-98 -155q-6 -9 -20.5 3t-143.5 90q-8 5 -3 12l74 110q-36 23 -111 68 q-8 5 -3 12z" />
<glyph unicode="&#x684;" horiz-adv-x="1310" arabic-form="final" d="M131 -461q39 556 512 784q-257 62 -436 -28q-12 -6 -24.5 -1t-12.5 16q7 220 258 223q79 1 242 -27q307 -52 581 -1q60 11 36 -41l-47 -106q-8 -17 -23 -19q-147 -19 -250 -40q13 -47 54 -73q93 -59 289 -41q38 3 48 -45t-6.5 -93t-41.5 -47q-377 -21 -420 142 q-18 70 -6 140q-217 -51 -348 -136q-163 -106 -244 -272t-57 -321q38 -244 286 -366q165 -81 710 -35q264 22 268 23q45 3 45 -19t-55 -40q-88 -28 -168 -81.5t-97.5 -62t-35.5 -10.5q-626 -71 -870 114q-208 158 -187 463zM667 -349l100 149q5 8 17 4q81 -28 145 -85 q9 -8 3 -18l-66 -104q56 -26 103 -68q9 -8 3 -18l-98 -155q-6 -9 -20.5 3t-143.5 90q-8 5 -3 12l74 110q-36 23 -111 68q-8 5 -3 12z" />
<glyph unicode="&#x684;" horiz-adv-x="1343" arabic-form="initial" d="M-31.5 133q13.5 50 31.5 52q294 21 543 148q-272 156 -498 85q-16 -5 -26.5 4.5t-6.5 24.5q16 63 83 128t144 66t357 -116q102 -43 259.5 -72.5t323.5 -18.5q45 3 27 -36l-57 -126q-11 -24 -44 -19q-233 39 -438 -21q-253 -84 -404 -159q-147 -73 -263 -73q-13 0 -21 20 q-24 63 -10.5 113zM477 -231l100 149q5 8 17 4q81 -28 145 -85q9 -8 3 -18l-66 -104q56 -26 103 -68q9 -8 3 -18l-98 -155q-6 -9 -20.5 3t-143.5 90q-8 5 -3 12l74 110q-36 23 -111 68q-8 5 -3 12z" />
<glyph unicode="&#x684;" horiz-adv-x="1250" arabic-form="medial" d="M-50 128q11 51 50 57q176 31 282 78q134 62 194 79q20 6 18 16q0 8 -16 15q-154 66 -244.5 74t-167.5 -35q-18 -10 -33.5 -5.5t-8.5 29.5q53 190 260 203q47 3 298 -98q129 -52 304 -78t333 -4q29 4 21 -30q-21 -90 -44 -145q-6 -15 -24 -13q-103 8 -178 10 q-31 -60 49.5 -83.5t206.5 -12.5q83 7 39 -139q-13 -43 -39 -46q-156 -20 -256 14q-137 48 -86 226q8 28 10 37q-188 -11 -392 -72q-84 -25 -264 -115t-262 -90q-28 0 -44 40t-6 88zM467 -219l100 149q5 8 17 4q81 -28 145 -85q9 -8 3 -18l-66 -104q56 -26 103 -68 q9 -8 3 -18l-98 -155q-6 -9 -20.5 3t-143.5 90q-8 5 -3 12l74 110q-36 23 -111 68q-8 5 -3 12z" />
<glyph unicode="&#x683;" horiz-adv-x="1355" arabic-form="isolated" d="M154 -290q95 416 496 608q-277 67 -415 -14q-12 -7 -23.5 -4.5t-11.5 13.5q2 48 21 101q38 107 197 116q79 4 252 -30t292.5 -32t294.5 32q60 10 39 -37l-49 -110q-8 -17 -23 -19q-490 -65 -686 -193q-385 -252 -301 -608q46 -198 296 -308q135 -59 428 -76.5t544 5.5 q32 3 41 -8.5t-0.5 -25.5t-25.5 -19q-124 -36 -195 -79q-105 -63 -130 -65q-602 -53 -869 142t-172 611zM610 -336l100 149q5 8 17 4q67 -23 123 -67l73 109q5 8 17 4q81 -28 145 -85q9 -8 3 -18l-98 -155q-6 -9 -20 3q-13 11 -116 73l-77 -122q-6 -9 -20.5 3t-143.5 90 q-8 5 -3 12z" />
<glyph unicode="&#x683;" horiz-adv-x="1310" arabic-form="final" d="M131 -461q39 556 512 784q-257 62 -436 -28q-12 -6 -24.5 -1t-12.5 16q7 220 258 223q79 1 242 -27q307 -52 581 -1q60 11 36 -41l-47 -106q-8 -17 -23 -19q-147 -19 -250 -40q13 -47 54 -73q93 -59 289 -41q38 3 48 -45t-6.5 -93t-41.5 -47q-377 -21 -420 142 q-18 70 -6 140q-217 -51 -348 -136q-163 -106 -244 -272t-57 -321q38 -244 286 -366q165 -81 710 -35q264 22 268 23q45 3 45 -19t-55 -40q-88 -28 -168 -81.5t-97.5 -62t-35.5 -10.5q-626 -71 -870 114q-208 158 -187 463zM560 -396l100 149q5 8 17 4q67 -23 123 -67 l73 109q5 8 17 4q81 -28 145 -85q9 -8 3 -18l-98 -155q-6 -9 -20 3q-13 11 -116 73l-77 -122q-6 -9 -20.5 3t-143.5 90q-8 5 -3 12z" />
<glyph unicode="&#x683;" horiz-adv-x="1343" arabic-form="initial" d="M-31.5 133q13.5 50 31.5 52q294 21 543 148q-272 156 -498 85q-16 -5 -26.5 4.5t-6.5 24.5q16 63 83 128t144 66t357 -116q102 -43 259.5 -72.5t323.5 -18.5q45 3 27 -36l-57 -126q-11 -24 -44 -19q-233 39 -438 -21q-253 -84 -404 -159q-147 -73 -263 -73q-13 0 -21 20 q-24 63 -10.5 113zM370 -278l100 149q5 8 17 4q67 -23 123 -67l73 109q5 8 17 4q81 -28 145 -85q9 -8 3 -18l-98 -155q-6 -9 -20 3q-13 11 -116 73l-77 -122q-6 -9 -20.5 3t-143.5 90q-8 5 -3 12z" />
<glyph unicode="&#x683;" horiz-adv-x="1250" arabic-form="medial" d="M-50 128q11 51 50 57q176 31 282 78q134 62 194 79q20 6 18 16q0 8 -16 15q-154 66 -244.5 74t-167.5 -35q-18 -10 -33.5 -5.5t-8.5 29.5q53 190 260 203q47 3 298 -98q129 -52 304 -78t333 -4q29 4 21 -30q-21 -90 -44 -145q-6 -15 -24 -13q-103 8 -178 10 q-31 -60 49.5 -83.5t206.5 -12.5q83 7 39 -139q-13 -43 -39 -46q-156 -20 -256 14q-137 48 -86 226q8 28 10 37q-188 -11 -392 -72q-84 -25 -264 -115t-262 -90q-28 0 -44 40t-6 88zM360 -266l100 149q5 8 17 4q67 -23 123 -67l73 109q5 8 17 4q81 -28 145 -85q9 -8 3 -18 l-98 -155q-6 -9 -20 3q-13 11 -116 73l-77 -122q-6 -9 -20.5 3t-143.5 90q-8 5 -3 12z" />
<glyph unicode="&#x686;" horiz-adv-x="1355" arabic-form="isolated" d="M154 -290q95 416 496 608q-277 67 -415 -14q-12 -7 -23.5 -4.5t-11.5 13.5q2 48 21 101q38 107 197 116q79 4 252 -30t292.5 -32t294.5 32q60 10 39 -37l-49 -110q-8 -17 -23 -19q-490 -65 -686 -193q-385 -252 -301 -608q46 -198 296 -308q135 -59 428 -76.5t544 5.5 q32 3 41 -8.5t-0.5 -25.5t-25.5 -19q-124 -36 -195 -79q-105 -63 -130 -65q-602 -53 -869 142t-172 611zM576 -239l98 155q6 9 20 -3q12 -10 101 -64l72 114q6 9 20.5 -3t143.5 -90q8 -5 3 -12l-100 -149q-5 -8 -17 -4q-59 20 -109 56l-67 -99q-5 -8 -17 -4q-81 28 -145 85 q-9 8 -3 18zM717 -452l98 155q6 9 20.5 -3t143.5 -90q8 -5 3 -12l-100 -149q-5 -8 -17 -4q-81 28 -145 85q-9 8 -3 18z" />
<glyph unicode="&#x686;" horiz-adv-x="1310" arabic-form="final" d="M131 -461q39 556 512 784q-257 62 -436 -28q-12 -6 -24.5 -1t-12.5 16q7 220 258 223q79 1 242 -27q307 -52 581 -1q60 11 36 -41l-47 -106q-8 -17 -23 -19q-147 -19 -250 -40q13 -47 54 -73q93 -59 289 -41q38 3 48 -45t-6.5 -93t-41.5 -47q-377 -21 -420 142 q-18 70 -6 140q-217 -51 -348 -136q-163 -106 -244 -272t-57 -321q38 -244 286 -366q165 -81 710 -35q264 22 268 23q45 3 45 -19t-55 -40q-88 -28 -168 -81.5t-97.5 -62t-35.5 -10.5q-626 -71 -870 114q-208 158 -187 463zM576 -349l98 155q6 9 20 -3q12 -10 101 -64 l72 114q6 9 20.5 -3t143.5 -90q8 -5 3 -12l-100 -149q-5 -8 -17 -4q-59 20 -109 56l-67 -99q-5 -8 -17 -4q-81 28 -145 85q-9 8 -3 18zM717 -562l98 155q6 9 20.5 -3t143.5 -90q8 -5 3 -12l-100 -149q-5 -8 -17 -4q-81 28 -145 85q-9 8 -3 18z" />
<glyph unicode="&#x686;" horiz-adv-x="1343" arabic-form="initial" d="M-31.5 133q13.5 50 31.5 52q294 21 543 148q-272 156 -498 85q-16 -5 -26.5 4.5t-6.5 24.5q16 63 83 128t144 66t357 -116q102 -43 259.5 -72.5t323.5 -18.5q45 3 27 -36l-57 -126q-11 -24 -44 -19q-233 39 -438 -21q-253 -84 -404 -159q-147 -73 -263 -73q-13 0 -21 20 q-24 63 -10.5 113zM386 -281l98 155q6 9 20 -3q12 -10 101 -64l72 114q6 9 20.5 -3t143.5 -90q8 -5 3 -12l-100 -149q-5 -8 -17 -4q-59 20 -109 56l-67 -99q-5 -8 -17 -4q-81 28 -145 85q-9 8 -3 18zM527 -494l98 155q6 9 20.5 -3t143.5 -90q8 -5 3 -12l-100 -149 q-5 -8 -17 -4q-81 28 -145 85q-9 8 -3 18z" />
<glyph unicode="&#x686;" horiz-adv-x="1250" arabic-form="medial" d="M-50 128q11 51 50 57q176 31 282 78q134 62 194 79q20 6 18 16q0 8 -16 15q-154 66 -244.5 74t-167.5 -35q-18 -10 -33.5 -5.5t-8.5 29.5q53 190 260 203q47 3 298 -98q129 -52 304 -78t333 -4q29 4 21 -30q-21 -90 -44 -145q-6 -15 -24 -13q-103 8 -178 10 q-31 -60 49.5 -83.5t206.5 -12.5q83 7 39 -139q-13 -43 -39 -46q-156 -20 -256 14q-137 48 -86 226q8 28 10 37q-188 -11 -392 -72q-84 -25 -264 -115t-262 -90q-28 0 -44 40t-6 88zM376 -269l98 155q6 9 20 -3q12 -10 101 -64l72 114q6 9 20.5 -3t143.5 -90q8 -5 3 -12 l-100 -149q-5 -8 -17 -4q-59 20 -109 56l-67 -99q-5 -8 -17 -4q-81 28 -145 85q-9 8 -3 18zM517 -482l98 155q6 9 20.5 -3t143.5 -90q8 -5 3 -12l-100 -149q-5 -8 -17 -4q-81 28 -145 85q-9 8 -3 18z" />
<glyph unicode="&#x687;" horiz-adv-x="1355" arabic-form="isolated" d="M154 -290q95 416 496 608q-277 67 -415 -14q-12 -7 -23.5 -4.5t-11.5 13.5q2 48 21 101q38 107 197 116q79 4 252 -30t292.5 -32t294.5 32q60 10 39 -37l-49 -110q-8 -17 -23 -19q-490 -65 -686 -193q-385 -252 -301 -608q46 -198 296 -308q135 -59 428 -76.5t544 5.5 q32 3 41 -8.5t-0.5 -25.5t-25.5 -19q-124 -36 -195 -79q-105 -63 -130 -65q-602 -53 -869 142t-172 611zM555 -230l100 149q5 8 17 4q68 -23 124 -67l74 110q5 8 17 4q81 -28 145 -85q9 -8 3 -18l-93 -147q65 -27 119 -75q9 -8 3 -18l-98 -155q-6 -9 -20 3q-13 11 -116 73 l-77 -122q-6 -9 -20.5 3t-143.5 90q-8 5 -3 12l99 148q-33 22 -127 79q-8 5 -3 12zM728 -326q53 -22 98 -57l73 109l1 1q-28 19 -100 62z" />
<glyph unicode="&#x687;" horiz-adv-x="1310" arabic-form="final" d="M131 -461q39 556 512 784q-257 62 -436 -28q-12 -6 -24.5 -1t-12.5 16q7 220 258 223q79 1 242 -27q307 -52 581 -1q60 11 36 -41l-47 -106q-8 -17 -23 -19q-147 -19 -250 -40q13 -47 54 -73q93 -59 289 -41q38 3 48 -45t-6.5 -93t-41.5 -47q-377 -21 -420 142 q-18 70 -6 140q-217 -51 -348 -136q-163 -106 -244 -272t-57 -321q38 -244 286 -366q165 -81 710 -35q264 22 268 23q45 3 45 -19t-55 -40q-88 -28 -168 -81.5t-97.5 -62t-35.5 -10.5q-626 -71 -870 114q-208 158 -187 463zM555 -300l100 149q5 8 17 4q68 -23 124 -67 l74 110q5 8 17 4q81 -28 145 -85q9 -8 3 -18l-93 -147q65 -27 119 -75q9 -8 3 -18l-98 -155q-6 -9 -20 3q-13 11 -116 73l-77 -122q-6 -9 -20.5 3t-143.5 90q-8 5 -3 12l99 148q-33 22 -127 79q-8 5 -3 12zM728 -396q53 -22 98 -57l73 109l1 1q-28 19 -100 62z" />
<glyph unicode="&#x687;" horiz-adv-x="1343" arabic-form="initial" d="M-31.5 133q13.5 50 31.5 52q294 21 543 148q-272 156 -498 85q-16 -5 -26.5 4.5t-6.5 24.5q16 63 83 128t144 66t357 -116q102 -43 259.5 -72.5t323.5 -18.5q45 3 27 -36l-57 -126q-11 -24 -44 -19q-233 39 -438 -21q-253 -84 -404 -159q-147 -73 -263 -73q-13 0 -21 20 q-24 63 -10.5 113zM365 -232l100 149q5 8 17 4q68 -23 124 -67l74 110q5 8 17 4q81 -28 145 -85q9 -8 3 -18l-93 -147q65 -27 119 -75q9 -8 3 -18l-98 -155q-6 -9 -20 3q-13 11 -116 73l-77 -122q-6 -9 -20.5 3t-143.5 90q-8 5 -3 12l99 148q-33 22 -127 79q-8 5 -3 12z M538 -328q53 -22 98 -57l73 109l1 1q-28 19 -100 62z" />
<glyph unicode="&#x687;" horiz-adv-x="1250" arabic-form="medial" d="M-50 128q11 51 50 57q176 31 282 78q134 62 194 79q20 6 18 16q0 8 -16 15q-154 66 -244.5 74t-167.5 -35q-18 -10 -33.5 -5.5t-8.5 29.5q53 190 260 203q47 3 298 -98q129 -52 304 -78t333 -4q29 4 21 -30q-21 -90 -44 -145q-6 -15 -24 -13q-103 8 -178 10 q-31 -60 49.5 -83.5t206.5 -12.5q83 7 39 -139q-13 -43 -39 -46q-156 -20 -256 14q-137 48 -86 226q8 28 10 37q-188 -11 -392 -72q-84 -25 -264 -115t-262 -90q-28 0 -44 40t-6 88zM355 -220l100 149q5 8 17 4q68 -23 124 -67l74 110q5 8 17 4q81 -28 145 -85q9 -8 3 -18 l-93 -147q65 -27 119 -75q9 -8 3 -18l-98 -155q-6 -9 -20 3q-13 11 -116 73l-77 -122q-6 -9 -20.5 3t-143.5 90q-8 5 -3 12l99 148q-33 22 -127 79q-8 5 -3 12zM528 -316q53 -22 98 -57l73 109l1 1q-28 19 -100 62z" />
<glyph unicode="&#x68d;" horiz-adv-x="923" arabic-form="isolated" d="M174 196q6 24 25 27q12 1 31 -15q39 -33 153 -18q248 32 325 78q7 4 4 24q-38 205 -333 320q-40 16 -30 47q33 100 59 130q17 20 46 4q273 -151 319 -403q26 -142 -12 -250q-11 -32 -43 -49q-195 -100 -430 -103q-163 -2 -114 208zM260 -376l100 149q5 8 17 4 q67 -23 123 -67l73 109q5 8 17 4q81 -28 145 -85q9 -8 3 -18l-98 -155q-6 -9 -20 3q-13 11 -116 73l-77 -122q-6 -9 -20.5 3t-143.5 90q-8 5 -3 12z" />
<glyph unicode="&#x68d;" horiz-adv-x="965" arabic-form="final" d="M158 310q9 28 30 32t29 -27q17 -59 56 -68q196 -42 357 22q80 32 105 113q4 14 -27.5 221t-36.5 252.5t6 69.5q34 71 47 104q6 15 21.5 13t17.5 -20q50 -430 109 -685q31 -136 93 -152q31 -8 41 -54.5t-2.5 -89t-38.5 -41.5q-135 8 -183 224q-15 68 -16 69q-6 16 -12 -2 q-64 -173 -164 -214q-127 -51 -345 -37q-170 11 -87 270zM260 -326l100 149q5 8 17 4q67 -23 123 -67l73 109q5 8 17 4q81 -28 145 -85q9 -8 3 -18l-98 -155q-6 -9 -20 3q-13 11 -116 73l-77 -122q-6 -9 -20.5 3t-143.5 90q-8 5 -3 12z" />
<glyph unicode="&#x68c;" horiz-adv-x="923" arabic-form="isolated" d="M174 196q6 24 25 27q12 1 31 -15q39 -33 153 -18q248 32 325 78q7 4 4 24q-38 205 -333 320q-40 16 -30 47q33 100 59 130q17 20 46 4q273 -151 319 -403q26 -142 -12 -250q-11 -32 -43 -49q-195 -100 -430 -103q-163 -2 -114 208zM176 1171l100 149q5 8 17 4 q67 -23 123 -67l73 109q5 8 17 4q81 -28 145 -85q9 -8 3 -18l-98 -155q-6 -9 -20 3q-13 11 -116 73l-77 -122q-6 -9 -20.5 3t-143.5 90q-8 5 -3 12z" />
<glyph unicode="&#x68c;" horiz-adv-x="965" arabic-form="final" d="M158 310q9 28 30 32t29 -27q17 -59 56 -68q196 -42 357 22q80 32 105 113q4 14 -27.5 221t-36.5 252.5t6 69.5q34 71 47 104q6 15 21.5 13t17.5 -20q50 -430 109 -685q31 -136 93 -152q31 -8 41 -54.5t-2.5 -89t-38.5 -41.5q-135 8 -183 224q-15 68 -16 69q-6 16 -12 -2 q-64 -173 -164 -214q-127 -51 -345 -37q-170 11 -87 270zM441 1271l100 149q5 8 17 4q67 -23 123 -67l73 109q5 8 17 4q81 -28 145 -85q9 -8 3 -18l-98 -155q-6 -9 -20 3q-13 11 -116 73l-77 -122q-6 -9 -20.5 3t-143.5 90q-8 5 -3 12z" />
<glyph unicode="&#x688;" horiz-adv-x="923" arabic-form="isolated" d="M143 1184.5q-7 15.5 4 13.5q76 -8 156 -1l54 53q7 145 -34 401q-1 5 10 33t20 32q16 8 20 -24q41 -294 21 -413q63 68 124 113t107 27q46 -17 68.5 -72t-53.5 -151q-16 -20 -130.5 -55t-237.5 -41q-53 9 -87.5 39t-41.5 45.5zM174 196q6 24 25 27q12 1 31 -15 q39 -33 153 -18q248 32 325 78q7 4 4 24q-38 205 -333 320q-40 16 -30 47q33 100 59 130q17 20 46 4q273 -151 319 -403q26 -142 -12 -250q-11 -32 -43 -49q-195 -100 -430 -103q-163 -2 -114 208zM361 1202q138 19 270 84q-34 69 -114 40q-38 -14 -156 -124z" />
<glyph unicode="&#x688;" horiz-adv-x="965" arabic-form="final" d="M158 310q9 28 30 32t29 -27q17 -59 56 -68q196 -42 357 22q80 32 105 113q4 14 -27.5 221t-36.5 252.5t6 69.5q34 71 47 104q6 15 21.5 13t17.5 -20q50 -430 109 -685q31 -136 93 -152q31 -8 41 -54.5t-2.5 -89t-38.5 -41.5q-135 8 -183 224q-15 68 -16 69q-6 16 -12 -2 q-64 -173 -164 -214q-127 -51 -345 -37q-170 11 -87 270zM408 1284.5q-7 15.5 4 13.5q76 -8 156 -1l54 53q7 145 -34 401q-1 5 10 33t20 32q16 8 20 -24q41 -294 21 -413q63 68 124 113t107 27q46 -17 68.5 -72t-53.5 -151q-16 -20 -130.5 -55t-237.5 -41q-53 9 -87.5 39 t-41.5 45.5zM626 1302q138 19 270 84q-34 69 -114 40q-38 -14 -156 -124z" />
<glyph unicode="&#x698;" horiz-adv-x="819" arabic-form="isolated" d="M-170 -330q0 8 7 14t17 3q140 -43 242 -30t234 98q196 127 284 295q8 15 4 32q-30 108 -160 269q-6 9 -4 15l50 205q6 25 36 -5q80 -82 120 -219.5t28 -275.5q-24 -178 -143 -330.5t-311 -202.5q-52 -14 -98 2q-240 81 -298 117q-8 5 -8 13zM145 908l100 149q5 8 17 4 q59 -20 109 -56l67 99q5 8 17 4q81 -28 145 -85q9 -8 3 -18l-98 -155q-6 -9 -20 3q-12 10 -101 64l-72 -114q-6 -9 -20.5 3t-143.5 90q-8 5 -3 12zM197 1168l100 149q5 8 17 4q81 -28 145 -85q9 -8 3 -18l-98 -155q-6 -9 -20.5 3t-143.5 90q-8 5 -3 12z" />
<glyph unicode="&#x698;" horiz-adv-x="703" arabic-form="final" d="M-170 -468q-4 11 4 17.5t20 2.5q134 -33 234 -12q208 44 382 239q74 82 92 165q2 52 -84 139q-18 17 -8 45l64 163q14 34 26 12q35 -62 65.5 -90t78.5 -28q48 -1 48 -91.5t-48 -93.5q-34 -2 -68 0q-8 0 -10 -12q-6 -199 -139 -371.5t-248 -185.5t-193 5t-198 78 q-14 7 -18 18zM125 784l100 149q5 8 17 4q59 -20 109 -56l67 99q5 8 17 4q81 -28 145 -85q9 -8 3 -18l-98 -155q-6 -9 -20 3q-12 10 -101 64l-72 -114q-6 -9 -20.5 3t-143.5 90q-8 5 -3 12zM177 1044l100 149q5 8 17 4q81 -28 145 -85q9 -8 3 -18l-98 -155q-6 -9 -20.5 3 t-143.5 90q-8 5 -3 12z" />
<glyph unicode="&#x691;" horiz-adv-x="819" arabic-form="isolated" d="M-170 -330q0 8 7 14t17 3q140 -43 242 -30t234 98q196 127 284 295q8 15 4 32q-30 108 -160 269q-6 9 -4 15l50 205q6 25 36 -5q80 -82 120 -219.5t28 -275.5q-24 -178 -143 -330.5t-311 -202.5q-52 -14 -98 2q-240 81 -298 117q-8 5 -8 13zM51 972.5q-7 15.5 4 13.5 q76 -8 156 -1l54 53q7 145 -34 401q-1 5 10 33t20 32q16 8 20 -24q41 -294 21 -413q63 68 124 113t107 27q46 -17 68.5 -72t-53.5 -151q-16 -20 -130.5 -55t-237.5 -41q-53 9 -87.5 39t-41.5 45.5zM269 990q138 19 270 84q-34 69 -114 40q-38 -14 -156 -124z" />
<glyph unicode="&#x691;" horiz-adv-x="703" arabic-form="final" d="M-170 -468q-4 11 4 17.5t20 2.5q134 -33 234 -12q208 44 382 239q74 82 92 165q2 52 -84 139q-18 17 -8 45l64 163q14 34 26 12q35 -62 65.5 -90t78.5 -28q48 -1 48 -91.5t-48 -93.5q-34 -2 -68 0q-8 0 -10 -12q-6 -199 -139 -371.5t-248 -185.5t-193 5t-198 78 q-14 7 -18 18zM79 698.5q-7 15.5 4 13.5q76 -8 156 -1l54 53q7 145 -34 401q-1 5 10 33t20 32q16 8 20 -24q41 -294 21 -413q63 68 124 113t107 27q46 -17 68.5 -72t-53.5 -151q-16 -20 -130.5 -55t-237.5 -41q-53 9 -87.5 39t-41.5 45.5zM297 716q138 19 270 84 q-34 69 -114 40q-38 -14 -156 -124z" />
<glyph unicode="&#x6a9;" horiz-adv-x="2463" arabic-form="isolated" d="M131 188q-6 56 15 158.5t88 196.5q10 14 23 12.5t17.5 -14t-3.5 -25.5q-146 -235 -1 -339q213 -154 674 -99q506 60 695 249q6 6 4 14q-126 204 -428 356q-34 17 -37 127q-5 155 62 215q291 260 1063 501q16 5 24 5q12 0 12 -14q0 -3 -3 -14l-40 -144q-8 -30 -27 -36 q-881 -315 -1022 -456q-8 -8 4 -14q431 -258 434 -515q1 -143 -60 -226q-85 -116 -469 -202q-258 -58 -473 -59q-517 -3 -552 323z" />
<glyph unicode="&#x6a9;" horiz-adv-x="2319" arabic-form="final" d="M131 188q-6 56 15 158.5t88 196.5q10 14 23 12.5t17.5 -14t-3.5 -25.5q-146 -235 -1 -339q213 -154 674 -99q535 64 703 259q-48 185 -423 361q-42 28 -52 135q-9 120 21 162q237 337 1034 665q17 7 28 7q19 0 18 -21q0 -9 -2 -18l-30 -130q-6 -25 -32 -38 q-712 -350 -957 -586q418 -212 715 -482q214 -195 350 -208q49 -5 49 -62q0 -33 -14.5 -78.5t-34.5 -44.5q-141 0 -428 284q-95 94 -196 169q6 -82 -4 -153q-40 -264 -533 -375q-258 -58 -473 -59q-517 -3 -552 323z" />
<glyph unicode="&#x6a9;" horiz-adv-x="1350" arabic-form="initial" d="M-56 122q0 71 56 63q336 -48 526 142q6 6 4 14q-126 204 -428 356q-34 17 -37 127q-5 155 62 215q291 260 1063 501q16 5 24 5q12 0 12 -14q0 -3 -3 -14l-40 -144q-8 -30 -27 -36q-881 -315 -1022 -456q-8 -8 4 -14q431 -258 434 -515q1 -143 -60 -226q-62 -84 -152 -106 q-213 -53 -377 -23q-27 5 -33 53q-6 50 -6 72z" />
<glyph unicode="&#x6a9;" horiz-adv-x="1206" arabic-form="medial" d="M-56 122q0 64 45 64q5 0 44 -5t129.5 -5t196.5 40.5t175 120.5q-48 185 -423 361q-42 28 -52 135q-9 120 21 162q237 337 1034 665q17 7 28 7q19 0 18 -21q0 -9 -2 -18l-30 -130q-6 -25 -32 -38q-712 -350 -957 -586q418 -212 715 -482q214 -195 350 -208q49 -5 49 -62 q0 -33 -14.5 -78.5t-34.5 -44.5q-141 0 -428 284q-95 94 -196 169q6 -82 -4 -153q-46 -312 -479 -312q-71 0 -112 9.5t-41 125.5z" />
<glyph unicode="&#x6af;" horiz-adv-x="2463" arabic-form="isolated" d="M131 188q-6 56 15 158.5t88 196.5q10 14 23 12.5t17.5 -14t-3.5 -25.5q-146 -235 -1 -339q213 -154 674 -99q506 60 695 249q6 6 4 14q-126 204 -428 356q-34 17 -37 127q-5 155 62 215q291 260 1063 501q16 5 24 5q12 0 12 -14q0 -3 -3 -14l-40 -144q-8 -30 -27 -36 q-881 -315 -1022 -456q-8 -8 4 -14q431 -258 434 -515q1 -143 -60 -226q-85 -116 -469 -202q-258 -58 -473 -59q-517 -3 -552 323zM1325 1335q23 36 52 63.5t47 35.5q344 164 908 329q12 4 11 -7t-43.5 -61.5t-75.5 -59.5q-368 -98 -892 -323q-30 -13 -7 23z" />
<glyph unicode="&#x6af;" horiz-adv-x="2319" arabic-form="final" d="M131 188q-6 56 15 158.5t88 196.5q10 14 23 12.5t17.5 -14t-3.5 -25.5q-146 -235 -1 -339q213 -154 674 -99q535 64 703 259q-48 185 -423 361q-42 28 -52 135q-9 120 21 162q237 337 1034 665q17 7 28 7q19 0 18 -21q0 -9 -2 -18l-30 -130q-6 -25 -32 -38 q-712 -350 -957 -586q418 -212 715 -482q214 -195 350 -208q49 -5 49 -62q0 -33 -14.5 -78.5t-34.5 -44.5q-141 0 -428 284q-95 94 -196 169q6 -82 -4 -153q-40 -264 -533 -375q-258 -58 -473 -59q-517 -3 -552 323zM1326 1410.5q19 38.5 45 69t43 40.5q324 200 867 424 q12 5 12 -6t-37 -65.5t-69 -67.5q-355 -137 -852 -417q-28 -16 -9 22.5z" />
<glyph unicode="&#x6af;" horiz-adv-x="1350" arabic-form="initial" d="M-56 122q0 71 56 63q336 -48 526 142q6 6 4 14q-126 204 -428 356q-34 17 -37 127q-5 155 62 215q291 260 1063 501q16 5 24 5q12 0 12 -14q0 -3 -3 -14l-40 -144q-8 -30 -27 -36q-881 -315 -1022 -456q-8 -8 4 -14q431 -258 434 -515q1 -143 -60 -226q-62 -84 -152 -106 q-213 -53 -377 -23q-27 5 -33 53q-6 50 -6 72zM212 1335q23 36 52 63.5t47 35.5q344 164 908 329q12 4 11 -7t-43.5 -61.5t-75.5 -59.5q-368 -98 -892 -323q-30 -13 -7 23z" />
<glyph unicode="&#x6af;" horiz-adv-x="1206" arabic-form="medial" d="M-56 122q0 64 45 64q5 0 44 -5t129.5 -5t196.5 40.5t175 120.5q-48 185 -423 361q-42 28 -52 135q-9 120 21 162q237 337 1034 665q17 7 28 7q19 0 18 -21q0 -9 -2 -18l-30 -130q-6 -25 -32 -38q-712 -350 -957 -586q418 -212 715 -482q214 -195 350 -208q49 -5 49 -62 q0 -33 -14.5 -78.5t-34.5 -44.5q-141 0 -428 284q-95 94 -196 169q6 -82 -4 -153q-46 -312 -479 -312q-71 0 -112 9.5t-41 125.5zM213 1410.5q19 38.5 45 69t43 40.5q324 200 867 424q12 5 12 -6t-37 -65.5t-69 -67.5q-355 -137 -852 -417q-28 -16 -9 22.5z" />
<glyph unicode="&#x6b3;" horiz-adv-x="2463" arabic-form="isolated" d="M131 188q-6 56 15 158.5t88 196.5q10 14 23 12.5t17.5 -14t-3.5 -25.5q-146 -235 -1 -339q213 -154 674 -99q506 60 695 249q6 6 4 14q-126 204 -428 356q-34 17 -37 127q-5 155 62 215q291 260 1063 501q16 5 24 5q12 0 12 -14q0 -3 -3 -14l-40 -144q-8 -30 -27 -36 q-881 -315 -1022 -456q-8 -8 4 -14q431 -258 434 -515q1 -143 -60 -226q-85 -116 -469 -202q-258 -58 -473 -59q-517 -3 -552 323zM797 -303l100 149q5 8 17 4q81 -28 145 -85q9 -8 3 -18l-66 -104q56 -26 103 -68q9 -8 3 -18l-98 -155q-6 -9 -20.5 3t-143.5 90q-8 5 -3 12 l74 110q-36 23 -111 68q-8 5 -3 12zM1325 1335q23 36 52 63.5t47 35.5q344 164 908 329q12 4 11 -7t-43.5 -61.5t-75.5 -59.5q-368 -98 -892 -323q-30 -13 -7 23z" />
<glyph unicode="&#x6b3;" horiz-adv-x="2319" arabic-form="final" d="M131 188q-6 56 15 158.5t88 196.5q10 14 23 12.5t17.5 -14t-3.5 -25.5q-146 -235 -1 -339q213 -154 674 -99q535 64 703 259q-48 185 -423 361q-42 28 -52 135q-9 120 21 162q237 337 1034 665q17 7 28 7q19 0 18 -21q0 -9 -2 -18l-30 -130q-6 -25 -32 -38 q-712 -350 -957 -586q418 -212 715 -482q214 -195 350 -208q49 -5 49 -62q0 -33 -14.5 -78.5t-34.5 -44.5q-141 0 -428 284q-95 94 -196 169q6 -82 -4 -153q-40 -264 -533 -375q-258 -58 -473 -59q-517 -3 -552 323zM797 -303l100 149q5 8 17 4q81 -28 145 -85q9 -8 3 -18 l-66 -104q56 -26 103 -68q9 -8 3 -18l-98 -155q-6 -9 -20.5 3t-143.5 90q-8 5 -3 12l74 110q-36 23 -111 68q-8 5 -3 12zM1326 1410.5q19 38.5 45 69t43 40.5q324 200 867 424q12 5 12 -6t-37 -65.5t-69 -67.5q-355 -137 -852 -417q-28 -16 -9 22.5z" />
<glyph unicode="&#x6b3;" horiz-adv-x="1350" arabic-form="initial" d="M-56 122q0 71 56 63q336 -48 526 142q6 6 4 14q-126 204 -428 356q-34 17 -37 127q-5 155 62 215q291 260 1063 501q16 5 24 5q12 0 12 -14q0 -3 -3 -14l-40 -144q-8 -30 -27 -36q-881 -315 -1022 -456q-8 -8 4 -14q431 -258 434 -515q1 -143 -60 -226q-62 -84 -152 -106 q-213 -53 -377 -23q-27 5 -33 53q-6 50 -6 72zM137 -193l100 149q5 8 17 4q81 -28 145 -85q9 -8 3 -18l-66 -104q56 -26 103 -68q9 -8 3 -18l-98 -155q-6 -9 -20.5 3t-143.5 90q-8 5 -3 12l74 110q-36 23 -111 68q-8 5 -3 12zM212 1335q23 36 52 63.5t47 35.5 q344 164 908 329q12 4 11 -7t-43.5 -61.5t-75.5 -59.5q-368 -98 -892 -323q-30 -13 -7 23z" />
<glyph unicode="&#x6b3;" horiz-adv-x="1206" arabic-form="medial" d="M-56 122q0 64 45 64q5 0 44 -5t129.5 -5t196.5 40.5t175 120.5q-48 185 -423 361q-42 28 -52 135q-9 120 21 162q237 337 1034 665q17 7 28 7q19 0 18 -21q0 -9 -2 -18l-30 -130q-6 -25 -32 -38q-712 -350 -957 -586q418 -212 715 -482q214 -195 350 -208q49 -5 49 -62 q0 -33 -14.5 -78.5t-34.5 -44.5q-141 0 -428 284q-95 94 -196 169q6 -82 -4 -153q-46 -312 -479 -312q-71 0 -112 9.5t-41 125.5zM213 1410.5q19 38.5 45 69t43 40.5q324 200 867 424q12 5 12 -6t-37 -65.5t-69 -67.5q-355 -137 -852 -417q-28 -16 -9 22.5zM626 -229 l100 149q5 8 17 4q81 -28 145 -85q9 -8 3 -18l-66 -104q56 -26 103 -68q9 -8 3 -18l-98 -155q-6 -9 -20.5 3t-143.5 90q-8 5 -3 12l74 110q-36 23 -111 68q-8 5 -3 12z" />
<glyph unicode="&#x6b1;" horiz-adv-x="2463" arabic-form="isolated" d="M131 188q-6 56 15 158.5t88 196.5q10 14 23 12.5t17.5 -14t-3.5 -25.5q-146 -235 -1 -339q213 -154 674 -99q506 60 695 249q6 6 4 14q-126 204 -428 356q-34 17 -37 127q-5 155 62 215q291 260 1063 501q16 5 24 5q12 0 12 -14q0 -3 -3 -14l-40 -144q-8 -30 -27 -36 q-881 -315 -1022 -456q-8 -8 4 -14q431 -258 434 -515q1 -143 -60 -226q-85 -116 -469 -202q-258 -58 -473 -59q-517 -3 -552 323zM866 1397l100 149q5 8 17 4q67 -23 123 -67l73 109q5 8 17 4q81 -28 145 -85q9 -8 3 -18l-98 -155q-6 -9 -20 3q-13 11 -116 73l-77 -122 q-6 -9 -20.5 3t-143.5 90q-8 5 -3 12zM1325 1335q23 36 52 63.5t47 35.5q344 164 908 329q12 4 11 -7t-43.5 -61.5t-75.5 -59.5q-368 -98 -892 -323q-30 -13 -7 23z" />
<glyph unicode="&#x6b1;" horiz-adv-x="2319" arabic-form="final" d="M131 188q-6 56 15 158.5t88 196.5q10 14 23 12.5t17.5 -14t-3.5 -25.5q-146 -235 -1 -339q213 -154 674 -99q535 64 703 259q-48 185 -423 361q-42 28 -52 135q-9 120 21 162q237 337 1034 665q17 7 28 7q19 0 18 -21q0 -9 -2 -18l-30 -130q-6 -25 -32 -38 q-712 -350 -957 -586q418 -212 715 -482q214 -195 350 -208q49 -5 49 -62q0 -33 -14.5 -78.5t-34.5 -44.5q-141 0 -428 284q-95 94 -196 169q6 -82 -4 -153q-40 -264 -533 -375q-258 -58 -473 -59q-517 -3 -552 323zM866 1421l100 149q5 8 17 4q67 -23 123 -67l73 109 q5 8 17 4q81 -28 145 -85q9 -8 3 -18l-98 -155q-6 -9 -20 3q-13 11 -116 73l-77 -122q-6 -9 -20.5 3t-143.5 90q-8 5 -3 12zM1326 1410.5q19 38.5 45 69t43 40.5q324 200 867 424q12 5 12 -6t-37 -65.5t-69 -67.5q-355 -137 -852 -417q-28 -16 -9 22.5z" />
<glyph unicode="&#x6b1;" horiz-adv-x="1350" arabic-form="initial" d="M-147 1397l100 149q5 8 17 4q67 -23 123 -67l73 109q5 8 17 4q81 -28 145 -85q9 -8 3 -18l-98 -155q-6 -9 -20 3q-13 11 -116 73l-77 -122q-6 -9 -20.5 3t-143.5 90q-8 5 -3 12zM-56 122q0 71 56 63q336 -48 526 142q6 6 4 14q-126 204 -428 356q-34 17 -37 127 q-5 155 62 215q291 260 1063 501q16 5 24 5q12 0 12 -14q0 -3 -3 -14l-40 -144q-8 -30 -27 -36q-881 -315 -1022 -456q-8 -8 4 -14q431 -258 434 -515q1 -143 -60 -226q-62 -84 -152 -106q-213 -53 -377 -23q-27 5 -33 53q-6 50 -6 72zM312 1375q23 36 52 63.5t47 35.5 q344 164 908 329q12 4 11 -7t-43.5 -61.5t-75.5 -59.5q-368 -98 -892 -323q-30 -13 -7 23z" />
<glyph unicode="&#x6b1;" horiz-adv-x="1206" arabic-form="medial" d="M-147 1421l100 149q5 8 17 4q67 -23 123 -67l73 109q5 8 17 4q81 -28 145 -85q9 -8 3 -18l-98 -155q-6 -9 -20 3q-13 11 -116 73l-77 -122q-6 -9 -20.5 3t-143.5 90q-8 5 -3 12zM-56 122q0 64 45 64q5 0 44 -5t129.5 -5t196.5 40.5t175 120.5q-48 185 -423 361 q-42 28 -52 135q-9 120 21 162q237 337 1034 665q17 7 28 7q19 0 18 -21q0 -9 -2 -18l-30 -130q-6 -25 -32 -38q-712 -350 -957 -586q418 -212 715 -482q214 -195 350 -208q49 -5 49 -62q0 -33 -14.5 -78.5t-34.5 -44.5q-141 0 -428 284q-95 94 -196 169q6 -82 -4 -153 q-46 -312 -479 -312q-71 0 -112 9.5t-41 125.5zM323 1459.5q19 38.5 45 69t43 40.5q324 200 867 424q12 5 12 -6t-37 -65.5t-69 -67.5q-355 -137 -852 -417q-28 -16 -9 22.5z" />
<glyph unicode="&#x6ba;" horiz-adv-x="1173" arabic-form="isolated" d="M131 239.5q10 183.5 126 343.5q16 22 30 12t-3 -39q-126 -213 -48 -346.5t309 -132.5q269 3 432 180q3 4 3 17q2 96 -58 256.5t-109 231.5q-14 20 -8 34l62 153q11 28 31 -7q72 -134 117 -323.5t17 -367.5q-15 -95 -61 -167q-120 -187 -415 -215q-213 -20 -324 83.5 t-101 287z" />
<glyph unicode="&#x6ba;" horiz-adv-x="1260" arabic-form="final" d="M131 -321.5q10 156.5 155 422.5q6 11 18 12t19 -9.5t-1 -25.5q-99 -191 -94 -269q16 -273 327 -276q340 -2 515 187q33 246 -40 411q-13 29 -10 35l59 137q13 30 33.5 8t62.5 -87q25 -39 85 -39q43 0 48 -43.5t-13 -92t-35 -49.5h-63q-12 -237 -147 -442 q-155 -235 -520 -247q-185 -6 -297 102.5t-102 265z" />
<glyph unicode="&#x6bb;" horiz-adv-x="1173" arabic-form="isolated" d="M131 239.5q10 183.5 126 343.5q16 22 30 12t-3 -39q-126 -213 -48 -346.5t309 -132.5q269 3 432 180q3 4 3 17q2 96 -58 256.5t-109 231.5q-14 20 -8 34l62 153q11 28 31 -7q72 -134 117 -323.5t17 -367.5q-15 -95 -61 -167q-120 -187 -415 -215q-213 -20 -324 83.5 t-101 287zM273 1084.5q-7 15.5 4 13.5q76 -8 156 -1l54 53q7 145 -34 401q-1 5 10 33t20 32q16 8 20 -24q41 -294 21 -413q63 68 124 113t107 27q46 -17 68.5 -72t-53.5 -151q-16 -20 -130.5 -55t-237.5 -41q-53 9 -87.5 39t-41.5 45.5zM491 1102q138 19 270 84 q-34 69 -114 40q-38 -14 -156 -124z" />
<glyph unicode="&#x6bb;" horiz-adv-x="1260" arabic-form="final" d="M131 -321.5q10 156.5 155 422.5q6 11 18 12t19 -9.5t-1 -25.5q-99 -191 -94 -269q16 -273 327 -276q340 -2 515 187q33 246 -40 411q-13 29 -10 35l59 137q13 30 33.5 8t62.5 -87q25 -39 85 -39q43 0 48 -43.5t-13 -92t-35 -49.5h-63q-12 -237 -147 -442 q-155 -235 -520 -247q-185 -6 -297 102.5t-102 265zM403 484.5q-7 15.5 4 13.5q76 -8 156 -1l54 53q7 145 -34 401q-1 5 10 33t20 32q16 8 20 -24q41 -294 21 -413q63 68 124 113t107 27q46 -17 68.5 -72t-53.5 -151q-16 -20 -130.5 -55t-237.5 -41q-53 9 -87.5 39 t-41.5 45.5zM621 502q138 19 270 84q-34 69 -114 40q-38 -14 -156 -124z" />
<glyph unicode="&#x6bb;" horiz-adv-x="390" arabic-form="initial" d="M-102 784.5q-7 15.5 4 13.5q76 -8 156 -1l54 53q7 145 -34 401q-1 5 10 33t20 32q16 8 20 -24q41 -294 21 -413q63 68 124 113t107 27q46 -17 68.5 -72t-53.5 -151q-16 -20 -130.5 -55t-237.5 -41q-53 9 -87.5 39t-41.5 45.5zM-43 104q-16 83 43 81q121 -5 182 65 q3 4 1 14q-12 59 -55 119q-18 25 -6 50l58 127q18 39 38 1q81 -149 30 -360q-49 -201 -248 -201q-22 0 -43 104zM116 802q138 19 270 84q-34 69 -114 40q-38 -14 -156 -124z" />
<glyph unicode="&#x6bb;" horiz-adv-x="500" arabic-form="medial" d="M-44 116q-5 21 8.5 44t35.5 25q228 17 304 134q11 17 28 17t18.5 -19t4.5 -25q67 -92 145 -107q34 -8 38 -24t0 -48q-15 -113 -38 -113q-110 -1 -222 124q-91 -111 -278 -124q-19 -1 -26 31zM-27 754.5q-7 15.5 4 13.5q76 -8 156 -1l54 53q7 145 -34 401q-1 5 10 33 t20 32q16 8 20 -24q41 -294 21 -413q63 68 124 113t107 27q46 -17 68.5 -72t-53.5 -151q-16 -20 -130.5 -55t-237.5 -41q-53 9 -87.5 39t-41.5 45.5zM191 772q138 19 270 84q-34 69 -114 40q-38 -14 -156 -124z" />
<glyph unicode="&#x6c0;" horiz-adv-x="756" arabic-form="isolated" d="M145 1212q-16 83 69 201q86 117 183 109q62 -5 55.5 -69.5t-36.5 -106.5t-51 -9t-61.5 37t-63.5 -23t4 -53q68 -64 199 -68q21 0 63 10t58.5 9.5t24 -13t2.5 -23.5q-39 -82 -72 -89q-111 -22 -157 -36.5t-173 -70.5q-27 -11 -39 7q-25 37 80 102q-76 38 -85 86z M151.5 314q42.5 166 157.5 298q4 4 4 26t11 29q34 24 83 -5q133 -78 187.5 -198t26 -246t-104.5 -196t-179 -71q-139 -2 -183.5 97.5t-2 265.5zM229 251q17 -75 118.5 -75t170.5 51q25 19 -10 61q-95 117 -182 115q-44 -1 -75 -58t-22 -94z" />
<glyph unicode="&#x6c0;" horiz-adv-x="777" arabic-form="final" d="M132 282.5q6 42.5 39 111t53 88.5q109 103 258 184q-6 84 -6.5 124.5t18.5 66.5l31 43q28 38 33 -18q3 -39 29 -241.5t30 -239.5q16 -164 70 -198q32 -20 90 -18q36 1 41.5 -43t-8.5 -92t-33 -50q-117 -10 -171.5 58t-76.5 244q-59 -111 -119 -135q-41 -16 -124.5 -1.5 t-121.5 44.5t-32 72.5zM177 1222q-16 83 69 201q86 117 183 109q62 -5 55.5 -69.5t-36.5 -106.5t-51 -9t-61.5 37t-63.5 -23t4 -53q68 -64 199 -68q21 0 63 10t58.5 9.5t24 -13t2.5 -23.5q-39 -82 -72 -89q-111 -22 -157 -36.5t-173 -70.5q-27 -11 -39 7q-25 37 80 102 q-76 38 -85 86zM267 403q-9 -13 5 -21q84 -41 222 -11q12 3 23 14q-7 65 -21 156q-159 -45 -229 -138z" />
<glyph unicode="&#x6c1;" horiz-adv-x="756" arabic-form="isolated" d="M151.5 314q42.5 166 157.5 298q4 4 4 26t11 29q34 24 83 -5q133 -78 187.5 -198t26 -246t-104.5 -196t-179 -71q-139 -2 -183.5 97.5t-2 265.5zM229 251q17 -75 118.5 -75t170.5 51q25 19 -10 61q-95 117 -182 115q-44 -1 -75 -58t-22 -94z" />
<glyph unicode="&#x6c1;" horiz-adv-x="836" arabic-form="final" d="M158 -68q90 154 276 422q63 91 109 26q61 -86 137 -137q77 -53 157 -57q63 -4 59 -40q-8 -85 -13 -100q-15 -44 -48 -46q-119 -7 -214 42q-91 46 -161 142q-15 18 -41 -3q-30 -24 -98 -106q-118 -142 -138 -164q-13 -14 -25 -7t0 28z" />
<glyph unicode="&#x6c1;" horiz-adv-x="926" arabic-form="initial" d="M-33 33q-60 138 33 151q76 10 142 58q-57 47 -32 125q43 132 151 227q-21 33 -67 39q-24 3 -18 26q48 185 135.5 181t275.5 -183t206 -287q23 -134 -64 -238q-44 -52 -107 -46q-162 17 -350 89q-196 -175 -272 -175q-19 -1 -33 33zM176 439q-20 -25 15 -48t134 -54 q68 34 68 55q-8 107 -64 118q-83 17 -153 -71zM401 312q239 -75 281 -50q13 7 10 17q-39 96 -213 206q-8 6 -7 -3q9 -66 -71 -170z" />
<glyph unicode="&#x6c1;" horiz-adv-x="944" arabic-form="medial" d="M-46 135q-3 47 46 50q173 10 306 237q19 32 38 18.5t9 -31.5q-74 -125 -127 -269q-75 -206 -42 -310q2 -8 5 1q49 116 112 218q24 42 38 28q15 -13 -11 -61q-100 -192 -13 -454q6 -18 0 -27l-73 -104q-14 -20 -22 -11q-178 215 -67 646q-69 -66 -153 -66q-18 -1 -30 43 q-14 46 -16 92zM258 -23q97 191 224.5 281t257.5 69q41 -8 90 -71.5t109 -70.5q24 -3 28 -49t-5 -92t-23 -44q-91 5 -182 93q-59 57 -91 61q-207 22 -330 -128q-23 -27 -40 -81q-10 -32 -34.5 -18.5t-3.5 50.5z" />
<glyph unicode="&#x6be;" horiz-adv-x="1246" arabic-form="isolated" d="M130 -10q-75 40 33 63q146 30 256 65q-5 12 -7 24q-12 75 10 162.5t116 192.5t166 142q71 36 105 -96q6 -23 29 -34q192 -93 259 -165q20 -22 26 -77t-14 -127.5t-63 -114.5q-44 -45 -252 -35q-150 7 -252 42q-104 -63 -242 -94q-44 -11 -66 0zM456 278q14 -60 130 -85 q97 41 120.5 76t0.5 114.5t-68 79.5q-31 0 -88 -50t-93 -121q-3 -7 -2 -14zM700 171q114 -21 291 -18q26 1 34.5 18.5t-1.5 29.5q-61 75 -235 162q-16 -107 -89 -192z" />
<glyph unicode="&#x6be;" horiz-adv-x="1070" arabic-form="final" d="M129 94q-87 63 23 75q313 35 358 65q82 221 240 405q76 89 101 78q41 -18 48 -85q30 -311 -215 -497q130 -10 386 50q17 4 28 -22q25 -58 -1 -129q-11 -30 -27 -34q-105 -23 -194 -18q68 -72 55 -241q-6 -73 -57 -142t-122 -70q-221 -3 -266 416l-59 8v70 q-78 -25 -102 -27q-51 -8 -82 15zM561 247q195 77 255 164q12 16 3 32q-21 37 -66 36q-17 0 -28 -6q-125 -71 -164 -226zM569 -65q36 -163 132 -205q78 -33 158 15q23 14 7 39q-76 110 -297 151z" />
<glyph unicode="&#x6be;" horiz-adv-x="926" arabic-form="initial" d="M-35 35q-43 143 32 149.5t115 27.5q-12 75 10 162.5t116 192.5t166 142t105 -96q6 -23 29 -34q192 -93 259 -165q20 -22 26 -77t-14 -127.5t-63 -114.5q-44 -44 -219 -36.5t-298 45.5q-106 -70 -229 -104q-23 -6 -35 35zM156 348q14 -60 130 -85q97 41 120.5 76 t0.5 114.5t-68 79.5q-31 0 -88 -50t-93 -121q-3 -7 -2 -14zM400 241q114 -21 291 -18q26 1 34.5 18.5t-1.5 29.5q-61 75 -235 162q-16 -107 -89 -192z" />
<glyph unicode="&#x6be;" horiz-adv-x="800" arabic-form="medial" d="M-57 138q-5 44 57 47q114 5 240 49q82 221 240 405q76 89 101 78q44 -19 48 -85q21 -308 -195 -497q110 -10 366 50q17 4 28 -22q25 -58 -1 -129q-11 -30 -27 -34q-105 -23 -194 -18q68 -72 55 -241q-6 -73 -57 -142t-122 -70q-221 -3 -266 416l-59 8l1 98 q-101 -51 -158 -51q-40 0 -57 138zM291 247q195 77 255 164q12 16 3 32q-21 37 -66 36q-17 0 -28 -6q-125 -71 -164 -226zM299 -65q36 -163 132 -205q78 -33 158 15q23 14 7 39q-76 110 -297 151z" />
<glyph unicode="&#x6d2;" horiz-adv-x="2375" arabic-form="isolated" d="M133 108q46 182 191 309q45 39 172 89.5t178 89.5t94 123q111 219 200 214q103 -6 34 -373q-6 -30 -29 -30t-23 28q6 186 -46 189q-35 2 -92 -85q-11 -17 -55 -89t-93 -121.5t-196 -111t-197 -102.5q-24 -20 -9 -41q34 -45 123 -55q156 -18 803 10q648 28 1015 27 q58 0 33 -46l-44 -83q-27 -50 -63 -50q-348 1 -902 -23t-794 -22t-289 80q-21 34 -11 73z" />
<glyph unicode="&#x6d2;" horiz-adv-x="1170" arabic-form="final" d="M133 -421q43 169 191 309q310 296 846 297q65 0 45.5 -92.5t-45.5 -92.5q-545 0 -899 -291q-24 -21 -9 -41q32 -46 123 -55q212 -22 917 14q59 3 33 -46l-44 -83q-25 -48 -63 -50q-555 -24 -795 -22t-289 80q-21 34 -11 73z" />
<glyph unicode="&#x6d3;" horiz-adv-x="2375" arabic-form="isolated" d="M133 108q46 182 191 309q45 39 172 89.5t178 89.5q37 28 56 47q47 48 47 17q-1 -24 -22 -87q-24 -73 -75 -119q-4 -4 -8 -6q-51 -44 -204 -108q-147 -62 -197 -102q-24 -20 -9 -41q34 -45 123 -55q156 -18 803 10q648 28 1015 27q58 0 33 -46l-44 -83q-27 -50 -63 -50 q-348 1 -902 -23t-794 -22t-289 80q-21 34 -11 73zM235 1646q-16 83 69 201q86 117 183 109q62 -5 55.5 -69.5t-36.5 -106.5t-51 -9t-61.5 37t-63.5 -23t4 -53q68 -64 199 -68q21 0 63 10t58.5 9.5t24 -13t2.5 -23.5q-39 -82 -72 -89q-111 -22 -157 -36.5t-173 -70.5 q-27 -11 -39 7q-25 37 80 102q-76 38 -85 86zM489 1139q-1 10 10 14q24 9 167 -149q84 -92 107.5 -172.5t6 -164.5t-33.5 -81q-20 4 -21 54q0 122 -199 306q-22 20 -27 29t-7 27z" />
<glyph unicode="&#x6d3;" horiz-adv-x="1060" arabic-form="final" d="M133 -322q46 182 191 309q45 39 172 89.5t178 89.5q45 35 100 121q43 67 90 78q4 1 6 1q30 2 38 -21q3 -10 7 -42q5 -39 -25 -79q-28 -35 -46 -15q-2 2 -4 5q-9 15 -18 10q-4 -3 -8 -8q-31 -35 -57 -73q-60 -87 -93 -121q-49 -50 -196 -111.5t-197 -102.5q-24 -20 -9 -41 q34 -45 123 -55q156 -18 803 10q648 28 1015 27q58 0 33 -46l-44 -83q-27 -50 -63 -50q-348 1 -902 -23t-794 -22t-289 80q-21 34 -11 73zM497 862q-16 83 69 201q86 117 183 109q62 -5 55.5 -69.5t-36.5 -106.5t-51 -9t-61.5 37t-63.5 -23t4 -53q68 -64 199 -68q21 0 63 10 t58.5 9.5t24 -13t2.5 -23.5q-39 -82 -72 -89q-111 -22 -157 -36.5t-173 -70.5q-27 -11 -39 7q-25 37 80 102q-76 38 -85 86zM835 251q-4 44 14 72q23 36 48 30q8 -2 14 -20q9 -33 23 -59q48 -86 155 -92q31 -2 30 -41t-34 -118q-9 -22 -25 -23q-32 -2 -60 4 q-144 34 -165 247z" />
<glyph unicode="&#x6d0;" horiz-adv-x="1566" arabic-form="isolated" d="M131 -79q-21 159 78 375q54 116 129 208q20 24 32 4t-1 -37q-202 -285 -132 -463q91 -232 411 -226q390 7 630 199q20 16 3 30q-33 29 -233 41t-231.5 101.5t5.5 202.5q73 222 288 376q109 79 186 84q185 12 131 -192q-15 -54 -52 -34q-123 66 -312 -40 q-123 -70 -170 -203q-9 -26 4 -54q43 -99 262 -111t229 -91q20 -161 -92 -251q-295 -237 -670 -251q-450 -17 -495 332zM594 -738l100 149q5 8 17 4q81 -28 145 -85q9 -8 3 -18l-66 -104q56 -26 103 -68q9 -8 3 -18l-98 -155q-6 -9 -20.5 3t-143.5 90q-8 5 -3 12l74 110 q-36 23 -111 68q-8 5 -3 12z" />
<glyph unicode="&#x6d0;" arabic-form="final" d="M132 -237q7 101 52 224.5t91 185.5q14 19 32.5 9t4.5 -35q-161 -293 -84 -445q111 -220 415 -206q353 16 616 236q23 31 -36.5 45.5t-182 23t-135.5 16.5q-101 55 -26 171q90 134 321 197q62 17 51 -67q-15 -118 -51 -118q-197 0 -201 -54q253 -9 332 -71 q30 -24 40.5 -60.5t-19 -112.5t-57.5 -105q-262 -276 -665 -294q-250 -11 -397 123q-117 108 -101 337zM616 -1026l100 149q5 8 17 4q81 -28 145 -85q9 -8 3 -18l-66 -104q56 -26 103 -68q9 -8 3 -18l-98 -155q-6 -9 -20.5 3t-143.5 90q-8 5 -3 12l74 110q-36 23 -111 68 q-8 5 -3 12z" />
<glyph unicode="&#x6d0;" horiz-adv-x="390" arabic-form="initial" d="M-43 104q-16 83 43 81q121 -5 182 65q3 4 1 14q-12 59 -55 119q-18 25 -6 50l58 127q18 39 38 1q81 -149 30 -360q-49 -201 -248 -201q-22 0 -43 104zM37 -379l100 149q5 8 17 4q81 -28 145 -85q9 -8 3 -18l-66 -104q56 -26 103 -68q9 -8 3 -18l-98 -155q-6 -9 -20.5 3 t-143.5 90q-8 5 -3 12l74 110q-36 23 -111 68q-8 5 -3 12z" />
<glyph unicode="&#x6d0;" horiz-adv-x="500" arabic-form="medial" d="M-44 116q-5 21 8.5 44t35.5 25q228 17 304 134q11 17 28 17t18.5 -19t4.5 -25q67 -92 145 -107q34 -8 38 -24t0 -48q-15 -113 -38 -113q-110 -1 -222 124q-91 -111 -278 -124q-19 -1 -26 31zM127 -379l100 149q5 8 17 4q81 -28 145 -85q9 -8 3 -18l-66 -104 q56 -26 103 -68q9 -8 3 -18l-98 -155q-6 -9 -20.5 3t-143.5 90q-8 5 -3 12l74 110q-36 23 -111 68q-8 5 -3 12z" />
<glyph unicode="&#x649;" horiz-adv-x="390" arabic-form="initial" d="M-43 104q-16 83 43 81q121 -5 182 65q3 4 1 14q-12 59 -55 119q-18 25 -6 50l58 127q18 39 38 1q81 -149 30 -360q-49 -201 -248 -201q-22 0 -43 104z" />
<glyph unicode="&#x649;" horiz-adv-x="500" arabic-form="medial" d="M-44 116q-5 21 8.5 44t35.5 25q228 17 304 134q11 17 28 17t18.5 -19t4.5 -25q67 -92 145 -107q34 -8 38 -24t0 -48q-15 -113 -38 -113q-110 -1 -222 124q-91 -111 -278 -124q-19 -1 -26 31z" />
<glyph unicode="&#x6cc;" horiz-adv-x="1566" arabic-form="isolated" d="M131 -79q-21 159 78 375q54 116 129 208q20 24 32 4t-1 -37q-202 -285 -132 -463q91 -232 411 -226q390 7 630 199q20 16 3 30q-33 29 -233 41t-231.5 101.5t5.5 202.5q73 222 288 376q109 79 186 84q185 12 131 -192q-15 -54 -52 -34q-123 66 -312 -40 q-123 -70 -170 -203q-9 -26 4 -54q43 -99 262 -111t229 -91q20 -161 -92 -251q-295 -237 -670 -251q-450 -17 -495 332z" />
<glyph unicode="&#x6cc;" arabic-form="final" d="M132 -237q7 101 52 224.5t91 185.5q14 19 32.5 9t4.5 -35q-161 -293 -84 -445q111 -220 415 -206q353 16 616 236q23 31 -36.5 45.5t-182 23t-135.5 16.5q-101 55 -26 171q90 134 321 197q62 17 51 -67q-15 -118 -51 -118q-197 0 -201 -54q253 -9 332 -71 q30 -24 40.5 -60.5t-19 -112.5t-57.5 -105q-262 -276 -665 -294q-250 -11 -397 123q-117 108 -101 337z" />
<glyph unicode="&#x6cc;" horiz-adv-x="390" arabic-form="initial" d="M-43 104q-16 83 43 81q121 -5 182 65q3 4 1 14q-12 59 -55 119q-18 25 -6 50l58 127q18 39 38 1q81 -149 30 -360q-49 -201 -248 -201q-22 0 -43 104zM-9 -426l100 149q5 8 17 4q67 -23 123 -67l73 109q5 8 17 4q81 -28 145 -85q9 -8 3 -18l-98 -155q-6 -9 -20 3 q-13 11 -116 73l-77 -122q-6 -9 -20.5 3t-143.5 90q-8 5 -3 12z" />
<glyph unicode="&#x6cc;" horiz-adv-x="500" arabic-form="medial" d="M-44 116q-5 21 8.5 44t35.5 25q228 17 304 134q11 17 28 17t18.5 -19t4.5 -25q67 -92 145 -107q34 -8 38 -24t0 -48q-15 -113 -38 -113q-110 -1 -222 124q-91 -111 -278 -124q-19 -1 -26 31zM31 -326l100 149q5 8 17 4q67 -23 123 -67l73 109q5 8 17 4q81 -28 145 -85 q9 -8 3 -18l-98 -155q-6 -9 -20 3q-13 11 -116 73l-77 -122q-6 -9 -20.5 3t-143.5 90q-8 5 -3 12z" />
<glyph unicode="&#xfdf2;" horiz-adv-x="1959" arabic-form="isolated" d="M130 211q38 119 138.5 203t218.5 112l-3 101q-1 17 34 89q36 72 42 82q23 34 25 -25q1 -25 4 -150t16 -238t65 -149q26 -18 69 -19q28 -1 40.5 -53.5t1.5 -105.5t-40 -55q-177 -18 -217 194q-2 8 -2 12q-67 -100 -103 -107q-182 -33 -273 33q-33 24 -16 76zM282 307 q33 -24 145 -20q52 2 76 29q-4 23 -11 112q-41 -8 -114.5 -44.5t-95.5 -76.5zM656 2086l39 131q10 32 38 -2q195 -215 133 -548q-4 -20 -20 -22q-19 -3 -21 21q-27 213 -159 375q-17 20 -10 45zM662 164.5q16 52.5 79 52.5q148 -1 194 102q0 1 -16 91l-44 232 q-28 143 -35.5 194.5t7.5 72.5l61 94q20 30 33 -25q5 -25 24 -149q63 -414 115 -498.5t140 -95.5q37 -5 49 -62.5t1 -113.5t-30 -57q-87 -2 -145.5 51t-112.5 157q-60 -144 -109 -173q-50 -29 -130 -33q-46 -2 -71.5 53t-9.5 107.5zM665 1551q15 37 44 25q23 -10 13 -46 q-33 -119 30 -128q77 -10 122 165q9 34 32 29q26 -6 21 -30q-17 -105 50 -106t79 114q5 45 31 43q31 -2 28 -43q-7 -110 -41 -184q-39 -87 -114 -93q-48 -4 -91 49q-29 -51 -76 -76q-51 -27 -101 -7q-120 48 -27 288zM1128.5 211q32.5 38 80.5 26.5t83 3.5q-2 50 -52 260 t-75 349q-9 54 55 147q23 33 34 -20l104 -481q22 -108 26 -150t-2 -99q-24 -245 -142 -245q-66 1 -105 86t-6.5 123zM1636 1184q-4 38 9 69l51 119q43 101 54 5l47 -503q76 -678 -18 -860q-12 -23 -21.5 -11.5t-8.5 33.5q3 172 -25 387q-1 9 -44 390z" />
<glyph unicode="&#xfdfa;" horiz-adv-x="2161" arabic-form="isolated" d="M0 -274q1 7 12 12q228 91 227 151v19q0 80 43 110q24 17 47 20q82 58 82 195v16l-35 374v1q0 10 7 24l24 49q7 13 14 12.5t20.5 -142.5t22.5 -205q22 -170 83 -259q104 -145 430 -144t472 108q16 12 21 2q8 -13 -22 -43q34 -41 94 -37q54 6 130 157q2 7 14 7 q12 -1 11 -16l-11 -49q41 -42 103 -44q34 2 11 77q-1 30 19 49.5t28 5t8.5 -61t-7.5 -82.5q-23 -91 -61 -94h-8q-77 0 -134 57q-49 -115 -138 -117q-58 1 -118 63q-155 -85 -426 -85q-465 1 -528 316q-6 -97 -47 -148q52 -21 74.5 -63t-24.5 -138q-12 -20 -45 -20h-1 q-72 1 -123 39q-23 -70 -62 -91q-89 -46 -191 -38q-15 1 -16 13zM0 454q1 23 23 64.5t33 54.5q50 57 141 103l-4 71q-1 24 11 36l24 23q15 14 18 -12q-1 -8 11 -131q28 -310 408 -310q335 0 474 115q92 -121 161.5 -76t88.5 115q-52 256 -65 685q0 15 9 33l44 81q2 3 8 6 q3 -1 4 -12q26 -482 45 -617q37 -282 232 -300q-38 51 -38.5 128.5t66.5 142.5q146 144 285 -11q12 -13 4 -26q-9 -12 -24 -7q-110 38 -219 0q-55 -20 -55.5 -49t40 -92t100.5 -62q98 2 222 76q70 41 52 2l-32 -77q-6 -18 -54 -45q-169 -92 -357.5 -87.5t-245.5 171.5 q-9 -23 -31 -57q-86 -133 -162 -114q-52 14 -108 72q-155 -99 -443 -99q-348 0 -429 228q-32 -61 -68.5 -75.5t-82.5 -6.5q-84 15 -86 59zM7 1022.5q15 47.5 70 95.5q56 47 123 63l-1 56v1q1 32 43 94q13 18 15 -3q0 -29 2 -134q5 -186 86 -187t107 57q-47 223 -52 270.5 t3 60.5l33 53q12 18 18 -7q1 1 25 -162.5t51 -204.5q48 -76 121 -54q-1 29 -35.5 175t-36.5 168t5 33l28 48q9 16 18 -11l59 -270q18 -92 13 -140q-14 -137 -79 -138q-51 0 -83 29.5t-62 88.5q-44 -120 -142 -117.5t-116 116.5q-37 -54 -64 -60q-92 -20 -147 18 q-17 14 -2 61.5zM74 523q5 -20 68.5 -18.5t80.5 16.5q-8 31 -18 85q-114 -32 -131 -83zM85 1058q20 -15 64.5 -12t59.5 16q-2 15 -5 64q-23 -5 -64 -25t-55 -43zM271 -53q73 -52 156 -54q-39 75 -116 75q-26 0 -40 -21zM298 1558q0 43 9.5 71.5t19.5 29.5t10 -15l-1 -20 q0 -14 10.5 -32t31.5 -6.5t38 66.5q5 14 15.5 13.5t10.5 -14.5q1 -41 28.5 -41t32 32.5t17.5 32.5q10 -2 10 -33t-17 -73t-48 -43.5t-51 21.5q-25 -43 -62 -43q-54 0 -54 54zM566 548q-128 143 57 452q3 6 12 8q18 -2 10 -20q-61 -105 -69 -146q-18 -89 23 -167 q55 -105 234.5 -93t315.5 130q-40 23 -201 51h-1q7 45 13 50q41 37 64.5 114.5t10.5 179.5q-18 138 -26 199l-31 221q-2 17 29 146q2 9 12 8t11 -7q72 -493 130 -591t166 -93q123 6 205 87q8 14 23.5 14.5t27.5 -16.5q36 -56 122 -83q48 54 97 97q144 124 231 124 q32 0 80.5 -35t48.5 -69t-33 -94t-46 -71q-106 -76 -278 -76q-67 1 -126 16l-31 -93q-3 -10 -14 -13q-23 0 -25 23v4q6 40 29 95q-59 25 -82.5 53t-30 28t-22.5 -16q-85 -83 -209.5 -79.5t-203.5 157.5q-6 -99 -70 -214q110 -17 142.5 -42.5t33.5 -33.5q9 -100 -60 -156 q-166 -131 -331 -131t-238 82zM771 1567q-2 18 5 39l26 59q8 21 13.5 21t7.5 -19l27 -291q44 -388 -5 -483q-5 -8 -11 -8t-6 19q0 158 -8 219q-10 80 -24 219zM843 96l56 83q3 4 26 -3q22 -7 54 -31l40 61q2 4 29 -6q25 -9 62 -40q3 -5 2 -10l-55 -87q-3 -4 -11 2 q-7 6 -65 41l-44 -69q0 4 -12 2q-28 -2 -80 51q-2 2 -2 6zM1173 1460l15 21q14 20 35 28l463 162q40 14 21 -17l-21 -34q-10 -16 -222 -86q-209 -71 -282 -97q-34 -12 -9 23zM1618 1345l15 21q15 21 35 28l463 162q40 14 21 -17l-21 -34q-9 -16 -221 -86q-209 -71 -283 -97 q-34 -12 -9 23zM1664 -232q1 7 28 4.5t67.5 -2.5t90 11.5t141 92t109.5 135.5q-6 47 -15 52q-29 -45 -57 -44q-93 0 -94 86q0 38 20 93q39 110 94 111q32 0 66 -53.5t34 -115.5q0 -190 -120 -327q-75 -86 -126.5 -90.5t-144.5 11.5t-93 33v3zM1752 981q67 -10 193 4t141 48 q0 2 -3 5q-60 54 -117.5 54.5t-124 -43t-89.5 -68.5zM1986 159q28 -32 71 -6q-33 54 -71 6z" />
<glyph unicode="&#xfdfc;" horiz-adv-x="2915" arabic-form="isolated" d="M130 213q-3 224 154 428q10 13 23 11t16.5 -14.5t-4.5 -26.5q-109 -194 -99 -286q29 -252 373 -240q296 10 428 179q-5 128 -47 456t-62 616l-8 68q0 18 5 30l39 90q6 14 21 14t21 -19q36 -97 84 -149q18 -19 -2.5 -50t-33.5 -46t-12 -42q8 -135 38 -372t39 -367 q15 -209 -55 -375q-43 -104 -214.5 -178t-307.5 -72q-392 6 -396 345zM1322 1316q-6 33 6 53l65 106q22 36 31 -31q38 -317 49 -543q21 -427 28 -515q15 -190 205 -201q53 -3 41 -75q-19 -110 -41 -110q-269 0 -288 249q-16 210 -22 422.5t-24.5 344t-49.5 300.5zM1627 -826 l100 149q5 8 17 4q67 -23 123 -67l73 109q5 8 17 4q81 -28 145 -85q9 -8 3 -18l-98 -155q-6 -9 -20 3q-13 11 -116 73l-77 -122q-6 -9 -20.5 3t-143.5 90q-8 5 -3 12zM1663 104q-16 83 43 81q121 -5 182 65q3 4 1 14q-12 59 -55 119q-18 25 -6 50l58 127q18 39 38 1 q81 -149 30 -360q-49 -201 -248 -201q-22 0 -43 104zM1926 -330q0 8 7 14t17 3q140 -43 242 -30t234 98q196 127 284 295q8 15 4 32q-30 108 -160 269q-6 9 -4 15l50 205q6 25 36 -5q80 -82 120 -219.5t28 -275.5q-24 -178 -143 -330.5t-311 -202.5q-52 -14 -98 2 q-240 81 -298 117q-8 5 -8 13z" />
<glyph unicode="&#x621;" horiz-adv-x="782" arabic-form="isolated" d="M130 312q10 84 126 218q71 81 120 81q105 -1 95 -115q-4 -41 -26.5 -78.5t-51.5 -10.5q-92 88 -132 32q-44 -63 72 -119q71 -34 165 -17q27 5 64 26.5t62 26.5q39 6 23 -47l-16 -54q-9 -29 -26 -40q-154 -54 -381 -207q-20 -13 -33 0q-35 35 92 141q-167 61 -153 163z " />
<glyph unicode="&#x622;" horiz-adv-x="446" arabic-form="isolated" d="M-278 1683q-28 26 64 132q17 19 57 12q364 -59 724 31q38 10 49.5 -22t-17.5 -51q-220 -145 -715 -130q-18 -41 -36.5 -61.5t-30.5 -7.5zM123 1184q-4 38 9 69l51 119q43 101 54 5l47 -503q76 -678 -18 -860q-12 -23 -21.5 -11.5t-8.5 33.5q3 172 -25 387q-1 9 -44 390z " />
<glyph unicode="&#x622;" horiz-adv-x="670" arabic-form="final" d="M-118 1683q-28 26 64 132q17 19 57 12q364 -59 724 31q38 10 49.5 -22t-17.5 -51q-220 -145 -715 -130q-18 -41 -36.5 -61.5t-30.5 -7.5zM286 1316q-6 33 6 53l65 106q22 36 31 -31q38 -317 49 -543q21 -427 28 -515q15 -190 205 -201q53 -3 41 -75q-19 -110 -41 -110 q-269 0 -288 249q-16 210 -22 422.5t-24.5 344t-49.5 300.5z" />
<glyph unicode="&#x623;" horiz-adv-x="480" arabic-form="isolated" d="M18 1752q-16 83 69 201q86 117 183 109q62 -5 55.5 -69.5t-36.5 -106.5t-51 -9t-61.5 37t-63.5 -23t4 -53q68 -64 199 -68q21 0 63 10t58.5 9.5t24 -13t2.5 -23.5q-39 -82 -72 -89q-111 -22 -157 -36.5t-173 -70.5q-27 -11 -39 7q-25 37 80 102q-76 38 -85 86zM148 1184 q-4 38 9 69l51 119q43 101 54 5l47 -503q76 -678 -18 -860q-12 -23 -21.5 -11.5t-8.5 33.5q3 172 -25 387q-1 9 -44 390z" />
<glyph unicode="&#x623;" horiz-adv-x="593" arabic-form="final" d="M88 1752q-16 83 69 201q86 117 183 109q62 -5 55.5 -69.5t-36.5 -106.5t-51 -9t-61.5 37t-63.5 -23t4 -53q68 -64 199 -68q21 0 63 10t58.5 9.5t24 -13t2.5 -23.5q-39 -82 -72 -89q-111 -22 -157 -36.5t-173 -70.5q-27 -11 -39 7q-25 37 80 102q-76 38 -85 86zM209 1316 q-6 33 6 53l65 106q22 36 31 -31q38 -317 49 -543q21 -427 28 -515q15 -190 205 -201q53 -3 41 -75q-19 -110 -41 -110q-269 0 -288 249q-16 210 -22 422.5t-24.5 344t-49.5 300.5z" />
<glyph unicode="&#x624;" horiz-adv-x="821" arabic-form="isolated" d="M-170 -365q3 15 26 12q161 -20 304 13q87 20 250.5 163.5t194.5 240.5q-10 84 -25 93q-77 -119 -197.5 -58t-36.5 299q71 198 168 196q58 0 109 -81.5t65 -183.5t-31.5 -283t-180 -334t-216 -162.5t-215.5 13t-196 48.5q-22 9 -19 24zM187 1022q-16 83 69 201 q86 117 183 109q62 -5 55.5 -69.5t-36.5 -106.5t-51 -9t-61.5 37t-63.5 -23t4 -53q68 -64 199 -68q21 0 63 10t58.5 9.5t24 -13t2.5 -23.5q-39 -82 -72 -89q-111 -22 -157 -36.5t-173 -70.5q-27 -11 -39 7q-25 37 80 102q-76 38 -85 86zM404 330q52 -58 127 -9 q-59 96 -127 9z" />
<glyph unicode="&#x624;" horiz-adv-x="708" arabic-form="final" d="M-152 -420q9 15 28 5q171 -89 428 58q220 125 299 346q0 7 -5 10q-151 2 -221 42.5t-53 158.5q4 27 17 65q44 127 127 173.5t141 -33.5q59 -82 67 -220q15 1 32 2q30 1 36 -47q6 -46 -6.5 -93t-29.5 -47q-15 -1 -40 -1q-1 -10 -3 -21q-64 -366 -387 -511 q-84 -38 -155 -42.5t-262 125.5q-22 15 -13 30zM180 895q-16 83 69 201q86 117 183 109q62 -5 55.5 -69.5t-36.5 -106.5t-51 -9t-61.5 37t-63.5 -23t4 -53q68 -64 199 -68q21 0 63 10t58.5 9.5t24 -13t2.5 -23.5q-39 -82 -72 -89q-111 -22 -157 -36.5t-173 -70.5 q-27 -11 -39 7q-25 37 80 102q-76 38 -85 86zM412 258q-9 -11 5 -29q32 -41 141 -39q13 0 9 16q-39 86 -98 84q-36 -5 -57 -32z" />
<glyph unicode="&#x625;" horiz-adv-x="446" arabic-form="isolated" d="M107 -392q-16 83 69 201q86 117 183 109q62 -5 55.5 -69.5t-36.5 -106.5t-51 -9t-61.5 37t-63.5 -23t4 -53q68 -64 199 -68q21 0 63 10t58.5 9.5t24 -13t2.5 -23.5q-39 -82 -72 -89q-111 -22 -157 -36.5t-173 -70.5q-27 -11 -39 7q-25 37 80 102q-76 38 -85 86zM123 1184 q-4 38 9 69l51 119q43 101 54 5l47 -503q76 -678 -18 -860q-12 -23 -21.5 -11.5t-8.5 33.5q3 172 -25 387q-1 9 -44 390z" />
<glyph unicode="&#x625;" horiz-adv-x="470" arabic-form="final" d="M27 -422q-16 83 69 201q86 117 183 109q62 -5 55.5 -69.5t-36.5 -106.5t-51 -9t-61.5 37t-63.5 -23t4 -53q68 -64 199 -68q21 0 63 10t58.5 9.5t24 -13t2.5 -23.5q-39 -82 -72 -89q-111 -22 -157 -36.5t-173 -70.5q-27 -11 -39 7q-25 37 80 102q-76 38 -85 86zM86 1316 q-6 33 6 53l65 106q22 36 31 -31q38 -317 49 -543q21 -427 28 -515q15 -190 205 -201q53 -3 41 -75q-19 -110 -41 -110q-269 0 -288 249q-16 210 -22 422.5t-24.5 344t-49.5 300.5z" />
<glyph unicode="&#x626;" horiz-adv-x="1566" arabic-form="isolated" d="M131 -79q-21 159 78 375q54 116 129 208q20 24 32 4t-1 -37q-202 -285 -132 -463q91 -232 411 -226q390 7 630 199q20 16 3 30q-33 29 -233 41t-231.5 101.5t5.5 202.5q73 222 288 376q109 79 186 84q185 12 131 -192q-15 -54 -52 -34q-123 66 -312 -40 q-123 -70 -170 -203q-9 -26 4 -54q43 -99 262 -111t229 -91q20 -161 -92 -251q-295 -237 -670 -251q-450 -17 -495 332zM162 950q-16 83 69 201q86 117 183 109q62 -5 55.5 -69.5t-36.5 -106.5t-51 -9t-61.5 37t-63.5 -23t4 -53q68 -64 199 -68q21 0 63 10t58.5 9.5t24 -13 t2.5 -23.5q-39 -82 -72 -89q-111 -22 -157 -36.5t-173 -70.5q-27 -11 -39 7q-25 37 80 102q-76 38 -85 86z" />
<glyph unicode="&#x626;" arabic-form="final" d="M107 622q-16 83 69 201q86 117 183 109q62 -5 55.5 -69.5t-36.5 -106.5t-51 -9t-61.5 37t-63.5 -23t4 -53q68 -64 199 -68q21 0 63 10t58.5 9.5t24 -13t2.5 -23.5q-39 -82 -72 -89q-111 -22 -157 -36.5t-173 -70.5q-27 -11 -39 7q-25 37 80 102q-76 38 -85 86zM132 -237 q7 101 52 224.5t91 185.5q14 19 32.5 9t4.5 -35q-161 -293 -84 -445q111 -220 415 -206q353 16 616 236q23 31 -36.5 45.5t-182 23t-135.5 16.5q-101 55 -26 171q90 134 321 197q62 17 51 -67q-15 -118 -51 -118q-197 0 -201 -54q253 -9 332 -71q30 -24 40.5 -60.5 t-19 -112.5t-57.5 -105q-262 -276 -665 -294q-250 -11 -397 123q-117 108 -101 337z" />
<glyph unicode="&#x626;" horiz-adv-x="390" arabic-form="initial" d="M-48 922q-16 83 69 201q86 117 183 109q62 -5 55.5 -69.5t-36.5 -106.5t-51 -9t-61.5 37t-63.5 -23t4 -53q68 -64 199 -68q21 0 63 10t58.5 9.5t24 -13t2.5 -23.5q-39 -82 -72 -89q-111 -22 -157 -36.5t-173 -70.5q-27 -11 -39 7q-25 37 80 102q-76 38 -85 86zM-43 104 q-16 83 43 81q121 -5 182 65q3 4 1 14q-12 59 -55 119q-18 25 -6 50l58 127q18 39 38 1q81 -149 30 -360q-49 -201 -248 -201q-22 0 -43 104z" />
<glyph unicode="&#x626;" horiz-adv-x="500" arabic-form="medial" d="M-44 116q-5 21 8.5 44t35.5 25q228 17 304 134q11 17 28 17t18.5 -19t4.5 -25q67 -92 145 -107q34 -8 38 -24t0 -48q-15 -113 -38 -113q-110 -1 -222 124q-91 -111 -278 -124q-19 -1 -26 31zM27 862q-16 83 69 201q86 117 183 109q62 -5 55.5 -69.5t-36.5 -106.5t-51 -9 t-61.5 37t-63.5 -23t4 -53q68 -64 199 -68q21 0 63 10t58.5 9.5t24 -13t2.5 -23.5q-39 -82 -72 -89q-111 -22 -157 -36.5t-173 -70.5q-27 -11 -39 7q-25 37 80 102q-76 38 -85 86z" />
<glyph unicode="&#x627;" horiz-adv-x="446" arabic-form="isolated" d="M123 1184q-4 38 9 69l51 119q43 101 54 5l47 -503q76 -678 -18 -860q-12 -23 -21.5 -11.5t-8.5 33.5q3 172 -25 387q-1 9 -44 390z" />
<glyph unicode="&#x627;" horiz-adv-x="470" arabic-form="final" d="M86 1316q-6 33 6 53l65 106q22 36 31 -31q38 -317 49 -543q21 -427 28 -515q15 -190 205 -201q53 -3 41 -75q-19 -110 -41 -110q-269 0 -288 249q-16 210 -22 422.5t-24.5 344t-49.5 300.5z" />
<glyph unicode="&#x628;" horiz-adv-x="1897" arabic-form="isolated" d="M162 484q32 75 110 160q13 14 26 10t15.5 -17t-6.5 -23q-37 -41 -58.5 -88.5t-11.5 -82.5q72 -264 595.5 -256t857.5 201q-7 77 -98 195q-6 8 4.5 55t46.5 123q13 28 38 0q58 -66 78 -184.5t-4.5 -230t-81.5 -144.5q-328 -191 -819.5 -215.5t-659.5 183.5 q-109 134 -32 314zM867 -429l100 149q5 8 17 4q81 -28 145 -85q9 -8 3 -18l-98 -155q-6 -9 -20.5 3t-143.5 90q-8 5 -3 12z" />
<glyph unicode="&#x628;" horiz-adv-x="1810" arabic-form="final" d="M151 83q-47 120 0 249t94 188q16 20 32 4.5t0 -37.5q-73 -102 -57 -171q68 -286 620 -270q372 11 686 140q64 26 84 122q6 29 37 26q22 -2 23 -44q2 -97 140 -105q53 -3 46 -66q-13 -119 -46 -119q-91 0 -166 94q-4 5 -26 -10q-367 -245 -868.5 -246t-598.5 245z M767 -479l100 149q5 8 17 4q81 -28 145 -85q9 -8 3 -18l-98 -155q-6 -9 -20.5 3t-143.5 90q-8 5 -3 12z" />
<glyph unicode="&#x628;" horiz-adv-x="390" arabic-form="initial" d="M-43 104q-16 83 43 81q121 -5 182 65q3 4 1 14q-12 59 -55 119q-18 25 -6 50l58 127q18 39 38 1q81 -149 30 -360q-49 -201 -248 -201q-22 0 -43 104zM37 -379l100 149q5 8 17 4q81 -28 145 -85q9 -8 3 -18l-98 -155q-6 -9 -20.5 3t-143.5 90q-8 5 -3 12z" />
<glyph unicode="&#x628;" horiz-adv-x="500" arabic-form="medial" d="M-44 116q-5 21 8.5 44t35.5 25q228 17 304 134q11 17 28 17t18.5 -19t4.5 -25q67 -92 145 -107q34 -8 38 -24t0 -48q-15 -113 -38 -113q-110 -1 -222 124q-91 -111 -278 -124q-19 -1 -26 31zM127 -379l100 149q5 8 17 4q81 -28 145 -85q9 -8 3 -18l-98 -155 q-6 -9 -20.5 3t-143.5 90q-8 5 -3 12z" />
<glyph unicode="&#x629;" horiz-adv-x="756" arabic-form="isolated" d="M124 1061l100 149q5 8 17 4q67 -23 123 -67l73 109q5 8 17 4q81 -28 145 -85q9 -8 3 -18l-98 -155q-6 -9 -20 3q-13 11 -116 73l-77 -122q-6 -9 -20.5 3t-143.5 90q-8 5 -3 12zM151.5 314q42.5 166 157.5 298q4 4 4 26t11 29q34 24 83 -5q133 -78 187.5 -198t26 -246 t-104.5 -196t-179 -71q-139 -2 -183.5 97.5t-2 265.5zM229 251q17 -75 118.5 -75t170.5 51q25 19 -10 61q-95 117 -182 115q-44 -1 -75 -58t-22 -94z" />
<glyph unicode="&#x629;" horiz-adv-x="777" arabic-form="final" d="M46 1071l100 149q5 8 17 4q67 -23 123 -67l73 109q5 8 17 4q81 -28 145 -85q9 -8 3 -18l-98 -155q-6 -9 -20 3q-13 11 -116 73l-77 -122q-6 -9 -20.5 3t-143.5 90q-8 5 -3 12zM132 282.5q6 42.5 39 111t53 88.5q109 103 258 184q-6 84 -6.5 124.5t18.5 66.5l31 43 q28 38 33 -18q3 -39 29 -241.5t30 -239.5q16 -164 70 -198q32 -20 90 -18q36 1 41.5 -43t-8.5 -92t-33 -50q-117 -10 -171.5 58t-76.5 244q-59 -111 -119 -135q-41 -16 -124.5 -1.5t-121.5 44.5t-32 72.5zM267 403q-9 -13 5 -21q84 -41 222 -11q12 3 23 14q-7 65 -21 156 q-159 -45 -229 -138z" />
<glyph unicode="&#x62a;" horiz-adv-x="1897" arabic-form="isolated" d="M162 484q32 75 110 160q13 14 26 10t15.5 -17t-6.5 -23q-37 -41 -58.5 -88.5t-11.5 -82.5q72 -264 595.5 -256t857.5 201q-7 77 -98 195q-6 8 4.5 55t46.5 123q13 28 38 0q58 -66 78 -184.5t-4.5 -230t-81.5 -144.5q-328 -191 -819.5 -215.5t-659.5 183.5 q-109 134 -32 314zM701 841l100 149q5 8 17 4q67 -23 123 -67l73 109q5 8 17 4q81 -28 145 -85q9 -8 3 -18l-98 -155q-6 -9 -20 3q-13 11 -116 73l-77 -122q-6 -9 -20.5 3t-143.5 90q-8 5 -3 12z" />
<glyph unicode="&#x62a;" horiz-adv-x="1810" arabic-form="final" d="M151 83q-47 120 0 249t94 188q16 20 32 4.5t0 -37.5q-73 -102 -57 -171q68 -286 620 -270q372 11 686 140q64 26 84 122q6 29 37 26q22 -2 23 -44q2 -97 140 -105q53 -3 46 -66q-13 -119 -46 -119q-91 0 -166 94q-4 5 -26 -10q-367 -245 -868.5 -246t-598.5 245zM701 841 l100 149q5 8 17 4q67 -23 123 -67l73 109q5 8 17 4q81 -28 145 -85q9 -8 3 -18l-98 -155q-6 -9 -20 3q-13 11 -116 73l-77 -122q-6 -9 -20.5 3t-143.5 90q-8 5 -3 12z" />
<glyph unicode="&#x62a;" horiz-adv-x="390" arabic-form="initial" d="M-73 771l100 149q5 8 17 4q67 -23 123 -67l73 109q5 8 17 4q81 -28 145 -85q9 -8 3 -18l-98 -155q-6 -9 -20 3q-13 11 -116 73l-77 -122q-6 -9 -20.5 3t-143.5 90q-8 5 -3 12zM-43 104q-16 83 43 81q121 -5 182 65q3 4 1 14q-12 59 -55 119q-18 25 -6 50l58 127 q18 39 38 1q81 -149 30 -360q-49 -201 -248 -201q-22 0 -43 104z" />
<glyph unicode="&#x62a;" horiz-adv-x="500" arabic-form="medial" d="M-44 116q-5 21 8.5 44t35.5 25q228 17 304 134q11 17 28 17t18.5 -19t4.5 -25q67 -92 145 -107q34 -8 38 -24t0 -48q-15 -113 -38 -113q-110 -1 -222 124q-91 -111 -278 -124q-19 -1 -26 31zM-13 711l100 149q5 8 17 4q67 -23 123 -67l73 109q5 8 17 4q81 -28 145 -85 q9 -8 3 -18l-98 -155q-6 -9 -20 3q-13 11 -116 73l-77 -122q-6 -9 -20.5 3t-143.5 90q-8 5 -3 12z" />
<glyph unicode="&#x62b;" horiz-adv-x="1897" arabic-form="isolated" d="M162 484q32 75 110 160q13 14 26 10t15.5 -17t-6.5 -23q-37 -41 -58.5 -88.5t-11.5 -82.5q72 -264 595.5 -256t857.5 201q-7 77 -98 195q-6 8 4.5 55t46.5 123q13 28 38 0q58 -66 78 -184.5t-4.5 -230t-81.5 -144.5q-328 -191 -819.5 -215.5t-659.5 183.5 q-109 134 -32 314zM713 840l100 149q5 8 17 4q59 -20 109 -56l67 99q5 8 17 4q81 -28 145 -85q9 -8 3 -18l-98 -155q-6 -9 -20 3q-12 10 -101 64l-72 -114q-6 -9 -20.5 3t-143.5 90q-8 5 -3 12zM765 1100l100 149q5 8 17 4q81 -28 145 -85q9 -8 3 -18l-98 -155 q-6 -9 -20.5 3t-143.5 90q-8 5 -3 12z" />
<glyph unicode="&#x62b;" horiz-adv-x="1810" arabic-form="final" d="M151 83q-47 120 0 249t94 188q16 20 32 4.5t0 -37.5q-73 -102 -57 -171q68 -286 620 -270q372 11 686 140q64 26 84 122q6 29 37 26q22 -2 23 -44q2 -97 140 -105q53 -3 46 -66q-13 -119 -46 -119q-91 0 -166 94q-4 5 -26 -10q-367 -245 -868.5 -246t-598.5 245zM713 840 l100 149q5 8 17 4q59 -20 109 -56l67 99q5 8 17 4q81 -28 145 -85q9 -8 3 -18l-98 -155q-6 -9 -20 3q-12 10 -101 64l-72 -114q-6 -9 -20.5 3t-143.5 90q-8 5 -3 12zM765 1100l100 149q5 8 17 4q81 -28 145 -85q9 -8 3 -18l-98 -155q-6 -9 -20.5 3t-143.5 90q-8 5 -3 12z " />
<glyph unicode="&#x62b;" horiz-adv-x="390" arabic-form="initial" d="M-61 770l100 149q5 8 17 4q59 -20 109 -56l67 99q5 8 17 4q81 -28 145 -85q9 -8 3 -18l-98 -155q-6 -9 -20 3q-12 10 -101 64l-72 -114q-6 -9 -20.5 3t-143.5 90q-8 5 -3 12zM-43 104q-16 83 43 81q121 -5 182 65q3 4 1 14q-12 59 -55 119q-18 25 -6 50l58 127 q18 39 38 1q81 -149 30 -360q-49 -201 -248 -201q-22 0 -43 104zM-9 1030l100 149q5 8 17 4q81 -28 145 -85q9 -8 3 -18l-98 -155q-6 -9 -20.5 3t-143.5 90q-8 5 -3 12z" />
<glyph unicode="&#x62b;" horiz-adv-x="500" arabic-form="medial" d="M-44 116q-5 21 8.5 44t35.5 25q228 17 304 134q11 17 28 17t18.5 -19t4.5 -25q67 -92 145 -107q34 -8 38 -24t0 -48q-15 -113 -38 -113q-110 -1 -222 124q-91 -111 -278 -124q-19 -1 -26 31zM-1 710l100 149q5 8 17 4q59 -20 109 -56l67 99q5 8 17 4q81 -28 145 -85 q9 -8 3 -18l-98 -155q-6 -9 -20 3q-12 10 -101 64l-72 -114q-6 -9 -20.5 3t-143.5 90q-8 5 -3 12zM51 970l100 149q5 8 17 4q81 -28 145 -85q9 -8 3 -18l-98 -155q-6 -9 -20.5 3t-143.5 90q-8 5 -3 12z" />
<glyph unicode="&#x62c;" horiz-adv-x="1355" arabic-form="isolated" d="M154 -290q95 416 496 608q-277 67 -415 -14q-12 -7 -23.5 -4.5t-11.5 13.5q2 48 21 101q38 107 197 116q79 4 252 -30t292.5 -32t294.5 32q60 10 39 -37l-49 -110q-8 -17 -23 -19q-490 -65 -686 -193q-385 -252 -301 -608q46 -198 296 -308q135 -59 428 -76.5t544 5.5 q32 3 41 -8.5t-0.5 -25.5t-25.5 -19q-124 -36 -195 -79q-105 -63 -130 -65q-602 -53 -869 142t-172 611zM667 -349l100 149q5 8 17 4q81 -28 145 -85q9 -8 3 -18l-98 -155q-6 -9 -20.5 3t-143.5 90q-8 5 -3 12z" />
<glyph unicode="&#x62c;" horiz-adv-x="1310" arabic-form="final" d="M131 -461q39 556 512 784q-257 62 -436 -28q-12 -6 -24.5 -1t-12.5 16q7 220 258 223q79 1 242 -27q307 -52 581 -1q60 11 36 -41l-47 -106q-8 -17 -23 -19q-147 -19 -250 -40q13 -47 54 -73q93 -59 289 -41q38 3 48 -45t-6.5 -93t-41.5 -47q-377 -21 -420 142 q-18 70 -6 140q-217 -51 -348 -136q-163 -106 -244 -272t-57 -321q38 -244 286 -366q165 -81 710 -35q264 22 268 23q45 3 45 -19t-55 -40q-88 -28 -168 -81.5t-97.5 -62t-35.5 -10.5q-626 -71 -870 114q-208 158 -187 463zM667 -349l100 149q5 8 17 4q81 -28 145 -85 q9 -8 3 -18l-98 -155q-6 -9 -20.5 3t-143.5 90q-8 5 -3 12z" />
<glyph unicode="&#x62c;" horiz-adv-x="1343" arabic-form="initial" d="M-31.5 133q13.5 50 31.5 52q294 21 543 148q-272 156 -498 85q-16 -5 -26.5 4.5t-6.5 24.5q16 63 83 128t144 66t357 -116q102 -43 259.5 -72.5t323.5 -18.5q45 3 27 -36l-57 -126q-11 -24 -44 -19q-233 39 -438 -21q-253 -84 -404 -159q-147 -73 -263 -73q-13 0 -21 20 q-24 63 -10.5 113zM477 -231l100 149q5 8 17 4q81 -28 145 -85q9 -8 3 -18l-98 -155q-6 -9 -20.5 3t-143.5 90q-8 5 -3 12z" />
<glyph unicode="&#x62c;" horiz-adv-x="1250" arabic-form="medial" d="M-50 128q11 51 50 57q176 31 282 78q134 62 194 79q20 6 18 16q0 8 -16 15q-154 66 -244.5 74t-167.5 -35q-18 -10 -33.5 -5.5t-8.5 29.5q53 190 260 203q47 3 298 -98q129 -52 304 -78t333 -4q29 4 21 -30q-21 -90 -44 -145q-6 -15 -24 -13q-103 8 -178 10 q-31 -60 49.5 -83.5t206.5 -12.5q83 7 39 -139q-13 -43 -39 -46q-156 -20 -256 14q-137 48 -86 226q8 28 10 37q-188 -11 -392 -72q-84 -25 -264 -115t-262 -90q-28 0 -44 40t-6 88zM467 -219l100 149q5 8 17 4q81 -28 145 -85q9 -8 3 -18l-98 -155q-6 -9 -20.5 3t-143.5 90 q-8 5 -3 12z" />
<glyph unicode="&#x62d;" horiz-adv-x="1355" arabic-form="isolated" d="M154 -290q95 416 496 608q-277 67 -415 -14q-12 -7 -23.5 -4.5t-11.5 13.5q2 48 21 101q38 107 197 116q79 4 252 -30t292.5 -32t294.5 32q60 10 39 -37l-49 -110q-8 -17 -23 -19q-490 -65 -686 -193q-385 -252 -301 -608q46 -198 296 -308q135 -59 428 -76.5t544 5.5 q32 3 41 -8.5t-0.5 -25.5t-25.5 -19q-124 -36 -195 -79q-105 -63 -130 -65q-602 -53 -869 142t-172 611z" />
<glyph unicode="&#x62d;" horiz-adv-x="1310" arabic-form="final" d="M131 -461q39 556 512 784q-257 62 -436 -28q-12 -6 -24.5 -1t-12.5 16q7 220 258 223q79 1 242 -27q307 -52 581 -1q60 11 36 -41l-47 -106q-8 -17 -23 -19q-147 -19 -250 -40q13 -47 54 -73q93 -59 289 -41q38 3 48 -45t-6.5 -93t-41.5 -47q-377 -21 -420 142 q-18 70 -6 140q-217 -51 -348 -136q-163 -106 -244 -272t-57 -321q38 -244 286 -366q165 -81 710 -35q264 22 268 23q45 3 45 -19t-55 -40q-88 -28 -168 -81.5t-97.5 -62t-35.5 -10.5q-626 -71 -870 114q-208 158 -187 463z" />
<glyph unicode="&#x62d;" horiz-adv-x="1343" arabic-form="initial" d="M-31.5 133q13.5 50 31.5 52q294 21 543 148q-272 156 -498 85q-16 -5 -26.5 4.5t-6.5 24.5q16 63 83 128t144 66t357 -116q102 -43 259.5 -72.5t323.5 -18.5q45 3 27 -36l-57 -126q-11 -24 -44 -19q-233 39 -438 -21q-253 -84 -404 -159q-147 -73 -263 -73q-13 0 -21 20 q-24 63 -10.5 113z" />
<glyph unicode="&#x62d;" horiz-adv-x="1250" arabic-form="medial" d="M-50 128q11 51 50 57q176 31 282 78q134 62 194 79q20 6 18 16q0 8 -16 15q-154 66 -244.5 74t-167.5 -35q-18 -10 -33.5 -5.5t-8.5 29.5q53 190 260 203q47 3 298 -98q129 -52 304 -78t333 -4q29 4 21 -30q-21 -90 -44 -145q-6 -15 -24 -13q-103 8 -178 10 q-31 -60 49.5 -83.5t206.5 -12.5q83 7 39 -139q-13 -43 -39 -46q-156 -20 -256 14q-137 48 -86 226q8 28 10 37q-188 -11 -392 -72q-84 -25 -264 -115t-262 -90q-28 0 -44 40t-6 88z" />
<glyph unicode="&#x62e;" horiz-adv-x="1355" arabic-form="isolated" d="M154 -290q95 416 496 608q-277 67 -415 -14q-12 -7 -23.5 -4.5t-11.5 13.5q2 48 21 101q38 107 197 116q79 4 252 -30t292.5 -32t294.5 32q60 10 39 -37l-49 -110q-8 -17 -23 -19q-490 -65 -686 -193q-385 -252 -301 -608q46 -198 296 -308q135 -59 428 -76.5t544 5.5 q32 3 41 -8.5t-0.5 -25.5t-25.5 -19q-124 -36 -195 -79q-105 -63 -130 -65q-602 -53 -869 142t-172 611zM567 871l100 149q5 8 17 4q81 -28 145 -85q9 -8 3 -18l-98 -155q-6 -9 -20.5 3t-143.5 90q-8 5 -3 12z" />
<glyph unicode="&#x62e;" horiz-adv-x="1310" arabic-form="final" d="M131 -461q39 556 512 784q-257 62 -436 -28q-12 -6 -24.5 -1t-12.5 16q7 220 258 223q79 1 242 -27q307 -52 581 -1q60 11 36 -41l-47 -106q-8 -17 -23 -19q-147 -19 -250 -40q13 -47 54 -73q93 -59 289 -41q38 3 48 -45t-6.5 -93t-41.5 -47q-377 -21 -420 142 q-18 70 -6 140q-217 -51 -348 -136q-163 -106 -244 -272t-57 -321q38 -244 286 -366q165 -81 710 -35q264 22 268 23q45 3 45 -19t-55 -40q-88 -28 -168 -81.5t-97.5 -62t-35.5 -10.5q-626 -71 -870 114q-208 158 -187 463zM567 871l100 149q5 8 17 4q81 -28 145 -85 q9 -8 3 -18l-98 -155q-6 -9 -20.5 3t-143.5 90q-8 5 -3 12z" />
<glyph unicode="&#x62e;" horiz-adv-x="1343" arabic-form="initial" d="M-31.5 133q13.5 50 31.5 52q294 21 543 148q-272 156 -498 85q-16 -5 -26.5 4.5t-6.5 24.5q16 63 83 128t144 66t357 -116q102 -43 259.5 -72.5t323.5 -18.5q45 3 27 -36l-57 -126q-11 -24 -44 -19q-233 39 -438 -21q-253 -84 -404 -159q-147 -73 -263 -73q-13 0 -21 20 q-24 63 -10.5 113zM477 921l100 149q5 8 17 4q81 -28 145 -85q9 -8 3 -18l-98 -155q-6 -9 -20.5 3t-143.5 90q-8 5 -3 12z" />
<glyph unicode="&#x62e;" horiz-adv-x="1250" arabic-form="medial" d="M-50 128q11 51 50 57q176 31 282 78q134 62 194 79q20 6 18 16q0 8 -16 15q-154 66 -244.5 74t-167.5 -35q-18 -10 -33.5 -5.5t-8.5 29.5q53 190 260 203q47 3 298 -98q129 -52 304 -78t333 -4q29 4 21 -30q-21 -90 -44 -145q-6 -15 -24 -13q-103 8 -178 10 q-31 -60 49.5 -83.5t206.5 -12.5q83 7 39 -139q-13 -43 -39 -46q-156 -20 -256 14q-137 48 -86 226q8 28 10 37q-188 -11 -392 -72q-84 -25 -264 -115t-262 -90q-28 0 -44 40t-6 88zM517 921l100 149q5 8 17 4q81 -28 145 -85q9 -8 3 -18l-98 -155q-6 -9 -20.5 3t-143.5 90 q-8 5 -3 12z" />
<glyph unicode="&#x62f;" horiz-adv-x="923" arabic-form="isolated" d="M174 196q6 24 25 27q12 1 31 -15q39 -33 153 -18q248 32 325 78q7 4 4 24q-38 205 -333 320q-40 16 -30 47q33 100 59 130q17 20 46 4q273 -151 319 -403q26 -142 -12 -250q-11 -32 -43 -49q-195 -100 -430 -103q-163 -2 -114 208z" />
<glyph unicode="&#x62f;" horiz-adv-x="965" arabic-form="final" d="M158 310q9 28 30 32t29 -27q17 -59 56 -68q196 -42 357 22q80 32 105 113q4 14 -27.5 221t-36.5 252.5t6 69.5q34 71 47 104q6 15 21.5 13t17.5 -20q50 -430 109 -685q31 -136 93 -152q31 -8 41 -54.5t-2.5 -89t-38.5 -41.5q-135 8 -183 224q-15 68 -16 69q-6 16 -12 -2 q-64 -173 -164 -214q-127 -51 -345 -37q-170 11 -87 270z" />
<glyph unicode="&#x630;" horiz-adv-x="923" arabic-form="isolated" d="M174 196q6 24 25 27q12 1 31 -15q39 -33 153 -18q248 32 325 78q7 4 4 24q-38 205 -333 320q-40 16 -30 47q33 100 59 130q17 20 46 4q273 -151 319 -403q26 -142 -12 -250q-11 -32 -43 -49q-195 -100 -430 -103q-163 -2 -114 208zM287 1171l100 149q5 8 17 4 q81 -28 145 -85q9 -8 3 -18l-98 -155q-6 -9 -20.5 3t-143.5 90q-8 5 -3 12z" />
<glyph unicode="&#x630;" horiz-adv-x="965" arabic-form="final" d="M158 310q9 28 30 32t29 -27q17 -59 56 -68q196 -42 357 22q80 32 105 113q4 14 -27.5 221t-36.5 252.5t6 69.5q34 71 47 104q6 15 21.5 13t17.5 -20q50 -430 109 -685q31 -136 93 -152q31 -8 41 -54.5t-2.5 -89t-38.5 -41.5q-135 8 -183 224q-15 68 -16 69q-6 16 -12 -2 q-64 -173 -164 -214q-127 -51 -345 -37q-170 11 -87 270zM552 1271l100 149q5 8 17 4q81 -28 145 -85q9 -8 3 -18l-98 -155q-6 -9 -20.5 3t-143.5 90q-8 5 -3 12z" />
<glyph unicode="&#x631;" horiz-adv-x="819" arabic-form="isolated" d="M-170 -330q0 8 7 14t17 3q140 -43 242 -30t234 98q196 127 284 295q8 15 4 32q-30 108 -160 269q-6 9 -4 15l50 205q6 25 36 -5q80 -82 120 -219.5t28 -275.5q-24 -178 -143 -330.5t-311 -202.5q-52 -14 -98 2q-240 81 -298 117q-8 5 -8 13z" />
<glyph unicode="&#x631;" horiz-adv-x="703" arabic-form="final" d="M-170 -468q-4 11 4 17.5t20 2.5q134 -33 234 -12q208 44 382 239q74 82 92 165q2 52 -84 139q-18 17 -8 45l64 163q14 34 26 12q35 -62 65.5 -90t78.5 -28q48 -1 48 -91.5t-48 -93.5q-34 -2 -68 0q-8 0 -10 -12q-6 -199 -139 -371.5t-248 -185.5t-193 5t-198 78 q-14 7 -18 18z" />
<glyph unicode="&#x632;" horiz-adv-x="819" arabic-form="isolated" d="M-170 -330q0 8 7 14t17 3q140 -43 242 -30t234 98q196 127 284 295q8 15 4 32q-30 108 -160 269q-6 9 -4 15l50 205q6 25 36 -5q80 -82 120 -219.5t28 -275.5q-24 -178 -143 -330.5t-311 -202.5q-52 -14 -98 2q-240 81 -298 117q-8 5 -8 13zM195 1059l100 149q5 8 17 4 q81 -28 145 -85q9 -8 3 -18l-98 -155q-6 -9 -20.5 3t-143.5 90q-8 5 -3 12z" />
<glyph unicode="&#x632;" horiz-adv-x="703" arabic-form="final" d="M-170 -468q-4 11 4 17.5t20 2.5q134 -33 234 -12q208 44 382 239q74 82 92 165q2 52 -84 139q-18 17 -8 45l64 163q14 34 26 12q35 -62 65.5 -90t78.5 -28q48 -1 48 -91.5t-48 -93.5q-34 -2 -68 0q-8 0 -10 -12q-6 -199 -139 -371.5t-248 -185.5t-193 5t-198 78 q-14 7 -18 18zM225 785l100 149q5 8 17 4q81 -28 145 -85q9 -8 3 -18l-98 -155q-6 -9 -20.5 3t-143.5 90q-8 5 -3 12z" />
<glyph unicode="&#x633;" horiz-adv-x="2032" arabic-form="isolated" d="M140 -178q-23 80 7.5 229t124.5 323q7 13 19.5 14t18.5 -9t0 -23q-128 -250 -104 -334q75 -267 386 -275q425 -11 607 274q11 157 -81 355q-11 21 -5 34q44 94 73 138q8 12 18.5 3t44 -66t50.5 -61q105 -23 212 64q41 34 77 187q4 17 16 22t22 -1q20 -14 2 -118 q82 -60 182 -50q1 31 -10 44t-8 24l37 148q5 20 21 20.5t26 -16.5q27 -45 27 -139q0 -150 -72 -267q-19 -31 -50 -38q-96 -19 -222 58q-92 -164 -265 -140q-10 -176 -53 -304t-151 -213q-235 -183 -518 -176q-350 9 -432 293z" />
<glyph unicode="&#x633;" horiz-adv-x="2210" arabic-form="final" d="M142 -428q-24 79 3.5 222.5t130.5 334.5q7 13 19.5 14t19 -9.5t0.5 -22.5q-126 -238 -104 -334q55 -237 385 -275q138 -16 321.5 53.5t273.5 200.5q45 162 -74 340q-13 22 -8 40l49 170q11 40 31 11q29 -49 51 -115q22 -68 217 -39q98 14 153 117q14 26 26 59.5 t26.5 36.5t25.5 -8.5t7 -27.5l-19 -60q-9 -38 20 -54q82 -45 165 -24q26 7 67 172q6 24 26 32q26 9 47 -32q99 -192 209 -189q60 2 44 -116q-9 -69 -44 -69q-152 0 -248 231q-10 24 -18 -1q-51 -166 -77 -214.5t-74 -49.5q-121 -2 -222 92q-109 -120 -290 -98 q-8 -221 -66 -347q-40 -94 -120 -154q-240 -181 -519 -175q-344 8 -434 288z" />
<glyph unicode="&#x633;" horiz-adv-x="1164" arabic-form="initial" d="M-36.5 89.5q-15.5 90.5 36.5 95.5q198 20 307 207q5 11 15 10q10 0 16 -8q11 -15 -30 -90q34 -62 166 -64q158 -2 242 277q4 11 14 12.5t17 -7t5 -20.5l-21 -87q43 -45 125.5 -69t95.5 5.5t-18 120.5q-4 10 60 112q8 12 22 -12t18 -102.5t-14 -155.5q-42 -166 -107 -168 q-150 -6 -255 103q-72 -169 -198 -202t-256 106q-108 -153 -204 -153q-21 -1 -36.5 89.5z" />
<glyph unicode="&#x633;" horiz-adv-x="1165" arabic-form="medial" d="M-48 138q-3 42 48 47q204 16 263 146q12 26 28 31.5t28.5 -10.5t-2 -46.5t-33.5 -64.5q248 -102 347 133q11 26 27 31.5t27.5 -9t3.5 -39.5q-24 -69 -21 -93q5 -46 75.5 -62.5t106 20t65.5 165.5q4 17 25.5 17t28.5 -17q74 -189 196 -202q25 -3 35 -59q10 -50 -1.5 -88 t-33.5 -38q-168 0 -245 203q-5 14 -10 -1q-36 -124 -71 -169t-80 -47q-145 -6 -218 109q-79 -95 -196.5 -95t-175.5 80q-81 -80 -169 -80q-39 0 -48 138z" />
<glyph unicode="&#x634;" horiz-adv-x="2032" arabic-form="isolated" d="M140 -178q-23 80 7.5 229t124.5 323q7 13 19.5 14t18.5 -9t0 -23q-128 -250 -104 -334q75 -267 386 -275q425 -11 607 274q11 157 -81 355q-11 21 -5 34q44 94 73 138q8 12 18.5 3t44 -66t50.5 -61q105 -23 212 64q41 34 77 187q4 17 16 22t22 -1q20 -14 2 -118 q82 -60 182 -50q1 31 -10 44t-8 24l37 148q5 20 21 20.5t26 -16.5q27 -45 27 -139q0 -150 -72 -267q-19 -31 -50 -38q-96 -19 -222 58q-92 -164 -265 -140q-10 -176 -53 -304t-151 -213q-235 -183 -518 -176q-350 9 -432 293zM1300 1040l100 149q5 8 17 4q59 -20 109 -56 l67 99q5 8 17 4q81 -28 145 -85q9 -8 3 -18l-98 -155q-6 -9 -20 3q-12 10 -101 64l-72 -114q-6 -9 -20.5 3t-143.5 90q-8 5 -3 12zM1352 1300l100 149q5 8 17 4q81 -28 145 -85q9 -8 3 -18l-98 -155q-6 -9 -20.5 3t-143.5 90q-8 5 -3 12z" />
<glyph unicode="&#x634;" horiz-adv-x="2210" arabic-form="final" d="M142 -428q-24 79 3.5 222.5t130.5 334.5q7 13 19.5 14t19 -9.5t0.5 -22.5q-126 -238 -104 -334q55 -237 385 -275q138 -16 321.5 53.5t273.5 200.5q45 162 -74 340q-13 22 -8 40l49 170q11 40 31 11q29 -49 51 -115q22 -68 217 -39q98 14 153 117q14 26 26 59.5 t26.5 36.5t25.5 -8.5t7 -27.5l-19 -60q-9 -38 20 -54q82 -45 165 -24q26 7 67 172q6 24 26 32q26 9 47 -32q99 -192 209 -189q60 2 44 -116q-9 -69 -44 -69q-152 0 -248 231q-10 24 -18 -1q-51 -166 -77 -214.5t-74 -49.5q-121 -2 -222 92q-109 -120 -290 -98 q-8 -221 -66 -347q-40 -94 -120 -154q-240 -181 -519 -175q-344 8 -434 288zM1363 720l100 149q5 8 17 4q59 -20 109 -56l67 99q5 8 17 4q81 -28 145 -85q9 -8 3 -18l-98 -155q-6 -9 -20 3q-12 10 -101 64l-72 -114q-6 -9 -20.5 3t-143.5 90q-8 5 -3 12zM1415 980l100 149 q5 8 17 4q81 -28 145 -85q9 -8 3 -18l-98 -155q-6 -9 -20.5 3t-143.5 90q-8 5 -3 12z" />
<glyph unicode="&#x634;" horiz-adv-x="1164" arabic-form="initial" d="M-36.5 89.5q-15.5 90.5 36.5 95.5q198 20 307 207q5 11 15 10q10 0 16 -8q11 -15 -30 -90q34 -62 166 -64q158 -2 242 277q4 11 14 12.5t17 -7t5 -20.5l-21 -87q43 -45 125.5 -69t95.5 5.5t-18 120.5q-4 10 60 112q8 12 22 -12t18 -102.5t-14 -155.5q-42 -166 -107 -168 q-150 -6 -255 103q-72 -169 -198 -202t-256 106q-108 -153 -204 -153q-21 -1 -36.5 89.5zM418 870l100 149q5 8 17 4q59 -20 109 -56l67 99q5 8 17 4q81 -28 145 -85q9 -8 3 -18l-98 -155q-6 -9 -20 3q-12 10 -101 64l-72 -114q-6 -9 -20.5 3t-143.5 90q-8 5 -3 12z M470 1130l100 149q5 8 17 4q81 -28 145 -85q9 -8 3 -18l-98 -155q-6 -9 -20.5 3t-143.5 90q-8 5 -3 12z" />
<glyph unicode="&#x634;" horiz-adv-x="1165" arabic-form="medial" d="M-48 138q-3 42 48 47q204 16 263 146q12 26 28 31.5t28.5 -10.5t-2 -46.5t-33.5 -64.5q248 -102 347 133q11 26 27 31.5t27.5 -9t3.5 -39.5q-24 -69 -21 -93q5 -46 75.5 -62.5t106 20t65.5 165.5q4 17 25.5 17t28.5 -17q74 -189 196 -202q25 -3 35 -59q10 -50 -1.5 -88 t-33.5 -38q-168 0 -245 203q-5 14 -10 -1q-36 -124 -71 -169t-80 -47q-145 -6 -218 109q-79 -95 -196.5 -95t-175.5 80q-81 -80 -169 -80q-39 0 -48 138zM363 747l100 149q5 8 17 4q59 -20 109 -56l67 99q5 8 17 4q81 -28 145 -85q9 -8 3 -18l-98 -155q-6 -9 -20 3 q-12 10 -101 64l-72 -114q-6 -9 -20.5 3t-143.5 90q-8 5 -3 12zM415 1007l100 149q5 8 17 4q81 -28 145 -85q9 -8 3 -18l-98 -155q-6 -9 -20.5 3t-143.5 90q-8 5 -3 12z" />
<glyph unicode="&#x635;" horiz-adv-x="2484" arabic-form="isolated" d="M134 -15q25 181 112 339q36 66 68 106q10 12 22.5 9.5t16 -14t-3.5 -24.5q-32 -43 -57 -104q-64 -157 -45 -277q47 -272 342 -280q264 -6 493 132q77 45 113 135q5 11 2 29q-30 195 -105 299q-16 23 -11 36l63 168q18 35 36 5l76 -128q72 -44 230 -50q178 180 358.5 309 t282.5 130q155 2 223 -180q15 -54 -30.5 -143.5t-72.5 -119.5q-146 -162 -550 -196q-227 -19 -414 24q-41 -331 -131 -424q-206 -212 -541 -234q-368 -24 -466 272q-25 78 -11 181zM1583 365q431 -25 646 137q-126 116 -269.5 78.5t-376.5 -215.5z" />
<glyph unicode="&#x635;" horiz-adv-x="2420" arabic-form="final" d="M133 -116q29 235 162 385q16 18 29 16t13.5 -16t-9.5 -27q-230 -299 -22 -505q105 -103 274 -103q284 0 505 145q68 45 106 128q5 11 3 29q-20 181 -104 302q-16 23 -11 37l64 168q19 36 37 5l75 -129q62 -39 223 -53q150 168 341.5 311t294.5 144q77 1 136 -58.5 t88 -139.5q6 -17 3 -34q-13 -96 -120 -232q-12 -11 -24 -21q126 -47 221 -51q19 -1 23 -51q12 -131 -23 -134q-168 -17 -422 117q-129 -49 -294 -61q-239 -16 -436 31q-45 -351 -119 -422q-217 -208 -546 -232q-241 -18 -365.5 127.5t-102.5 323.5zM1572 259 q141 -5 325 31.5t261 106.5q-68 83 -153 82q-173 0 -301 -103z" />
<glyph unicode="&#x635;" horiz-adv-x="1430" arabic-form="initial" d="M-40 138q15 41 40 47q106 26 178 157q15 28 44 27.5t48 -32.5q63 -101 217 -146q88 98 172 172q253 219 413 221q58 0 150 -67t79 -136t-66 -164.5t-75 -111.5q-188 -137 -493 -137q-121 1 -226 30q-16 -20 -56 -167q-7 -30 -40 -18.5t-29 44.5q11 73 51 169 q-107 46 -168 119q-22 27 -34.5 27t-24.5 -29q-59 -143 -140 -143q-12 0 -23 23q-32 74 -17 115zM572 170q118 -18 331.5 6t256.5 76q13 9 1 20q-117 106 -262 95q-57 -5 -171.5 -80t-155.5 -117z" />
<glyph unicode="&#x635;" horiz-adv-x="1480" arabic-form="medial" d="M-35 34q-24 75 3 127q14 27 32 24q94 -16 219 136q15 18 29 12.5t35 -28.5q93 -103 224 -113q118 178 296.5 319.5t294.5 168.5q81 17 173.5 -39.5t110.5 -131.5q-36 -169 -117 -276q122 -44 214 -48q19 -1 23 -51q12 -131 -23 -134q-159 -16 -396 104 q-299 -150 -603 -82q-32 -91 -38.5 -132.5t-27 -51.5t-37.5 3q-32 25 31 205q-64 19 -106 48.5t-83 82.5q-109 -167 -219 -177q-24 -2 -35 34zM601 180q155 -6 371 60q139 43 255 131q13 10 -1 23q-154 154 -423 -24q-134 -89 -202 -190z" />
<glyph unicode="&#x636;" horiz-adv-x="2484" arabic-form="isolated" d="M134 -15q25 181 112 339q36 66 68 106q10 12 22.5 9.5t16 -14t-3.5 -24.5q-32 -43 -57 -104q-64 -157 -45 -277q47 -272 342 -280q264 -6 493 132q77 45 113 135q5 11 2 29q-30 195 -105 299q-16 23 -11 36l63 168q18 35 36 5l76 -128q72 -44 230 -50q178 180 358.5 309 t282.5 130q155 2 223 -180q15 -54 -30.5 -143.5t-72.5 -119.5q-146 -162 -550 -196q-227 -19 -414 24q-41 -331 -131 -424q-206 -212 -541 -234q-368 -24 -466 272q-25 78 -11 181zM1548 1081l100 149q5 8 17 4q81 -28 145 -85q9 -8 3 -18l-98 -155q-6 -9 -20.5 3t-143.5 90 q-8 5 -3 12zM1583 365q431 -25 646 137q-126 116 -269.5 78.5t-376.5 -215.5z" />
<glyph unicode="&#x636;" horiz-adv-x="2420" arabic-form="final" d="M133 -116q29 235 162 385q16 18 29 16t13.5 -16t-9.5 -27q-230 -299 -22 -505q105 -103 274 -103q284 0 505 145q68 45 106 128q5 11 3 29q-20 181 -104 302q-16 23 -11 37l64 168q19 36 37 5l75 -129q62 -39 223 -53q150 168 341.5 311t294.5 144q77 1 136 -58.5 t88 -139.5q6 -17 3 -34q-13 -96 -120 -232q-12 -11 -24 -21q126 -47 221 -51q19 -1 23 -51q12 -131 -23 -134q-168 -17 -422 117q-129 -49 -294 -61q-239 -16 -436 31q-45 -351 -119 -422q-217 -208 -546 -232q-241 -18 -365.5 127.5t-102.5 323.5zM1551 997l100 149 q5 8 17 4q81 -28 145 -85q9 -8 3 -18l-98 -155q-6 -9 -20.5 3t-143.5 90q-8 5 -3 12zM1572 259q141 -5 325 31.5t261 106.5q-68 83 -153 82q-173 0 -301 -103z" />
<glyph unicode="&#x636;" horiz-adv-x="1430" arabic-form="initial" d="M-40 138q15 41 40 47q106 26 178 157q15 28 44 27.5t48 -32.5q63 -101 217 -146q88 98 172 172q253 219 413 221q58 0 150 -67t79 -136t-66 -164.5t-75 -111.5q-188 -137 -493 -137q-121 1 -226 30q-16 -20 -56 -167q-7 -30 -40 -18.5t-29 44.5q11 73 51 169 q-107 46 -168 119q-22 27 -34.5 27t-24.5 -29q-59 -143 -140 -143q-12 0 -23 23q-32 74 -17 115zM501 865l100 149q5 8 17 4q81 -28 145 -85q9 -8 3 -18l-98 -155q-6 -9 -20.5 3t-143.5 90q-8 5 -3 12zM572 170q118 -18 331.5 6t256.5 76q13 9 1 20q-117 106 -262 95 q-57 -5 -171.5 -80t-155.5 -117z" />
<glyph unicode="&#x636;" horiz-adv-x="1480" arabic-form="medial" d="M-35 34q-24 75 3 127q14 27 32 24q94 -16 219 136q15 18 29 12.5t35 -28.5q93 -103 224 -113q118 178 296.5 319.5t294.5 168.5q81 17 173.5 -39.5t110.5 -131.5q-36 -169 -117 -276q122 -44 214 -48q19 -1 23 -51q12 -131 -23 -134q-159 -16 -396 104 q-299 -150 -603 -82q-32 -91 -38.5 -132.5t-27 -51.5t-37.5 3q-32 25 31 205q-64 19 -106 48.5t-83 82.5q-109 -167 -219 -177q-24 -2 -35 34zM579 958l100 149q5 8 17 4q81 -28 145 -85q9 -8 3 -18l-98 -155q-6 -9 -20.5 3t-143.5 90q-8 5 -3 12zM601 180q155 -6 371 60 q139 43 255 131q13 10 -1 23q-154 154 -423 -24q-134 -89 -202 -190z" />
<glyph unicode="&#x637;" horiz-adv-x="1623" arabic-form="isolated" d="M142 118.5q-28 49.5 7 45.5q148 -21 390 -4l135 132q11 213 -11 445t-45 407.5t-28 195.5t2 37q39 94 46.5 104t19 9t14.5 -11q22 -55 36 -85.5t55 -75.5q15 -23 0 -42l-39 -51q-12 -16 -10 -35q46 -495 37.5 -646t-19.5 -203q253 198 361 249.5t186 61.5q42 5 95 -28 q111 -72 118 -133t-47 -166t-89 -141q-52 -54 -333 -140.5t-588 -100.5q-114 19 -189.5 72.5t-103.5 103zM659 174q422 47 674 180q-68 135 -302 64q-148 -45 -372 -244z" />
<glyph unicode="&#x637;" horiz-adv-x="1540" arabic-form="final" d="M133 187q-12 21 10 17q220 -40 408 -8l137 149q13 145 -9.5 446t-58.5 566l-13 97q26 69 50 115q6 11 19 11t22 -26q30 -91 76 -138q26 -26 7 -52l-39 -52q-12 -16 -10 -38q48 -523 42 -619t-41 -271q195 166 396 259q114 53 171 31q88 -35 142 -148q10 -21 3 -60 q-31 -177 -154 -266q157 -28 249 -15q29 4 38 -37q18 -81 -3.5 -114t-34.5 -34q-200 -16 -446 49q-100 -39 -368 -54q-371 -21 -423 9q-97 56 -170 183zM660 205q382 26 640 138q-78 135 -205 118q-198 -26 -435 -256z" />
<glyph unicode="&#x637;" horiz-adv-x="1163" arabic-form="initial" d="M-42 137q8 46 42 48q87 4 135 11l115 111q4 16 8 77q4 62 3 158t-17 349q-18 297 -31.5 367t-9.5 81q25 67 53 112q8 11 17 8.5t14 -15.5q51 -118 88 -159q17 -18 -1 -41l-41 -52q-12 -14 -10 -44q27 -409 27 -452q0 -205 -26 -328q299 241 445 280q76 21 124 3 q76 -29 134 -140q12 -23 2 -58q-36 -129 -105 -234q-48 -74 -202 -110q-375 -87 -722 -109q-21 -1 -35.5 45t-6.5 92zM261 204q392 33 630 118q12 4 6 14q-83 124 -201 126q-22 0 -43 -6q-203 -66 -392 -252z" />
<glyph unicode="&#x637;" horiz-adv-x="1130" arabic-form="medial" d="M-30 48q-42 132 30 137l88 1l113 122q4 393 -66 947q-10 81 -15 99q-8 30 49 140q6 12 17.5 10.5t16.5 -14.5q42 -110 86 -152q24 -23 0 -54l-35 -45q-11 -14 -7 -46q52 -419 43 -588q-4 -69 -38 -240q250 208 375 267t190 39q98 -29 154 -144q11 -22 4 -60 q-29 -157 -140 -256q157 -40 295 -26q29 3 38 -37q18 -81 -3.5 -114t-34.5 -34q-200 -16 -446 49q-150 -49 -392.5 -52.5t-291.5 3.5q-15 2 -30 48zM184 187q369 20 644 159q-22 39 -76 78q-130 95 -358 -62q-116 -80 -210 -175z" />
<glyph unicode="&#x638;" horiz-adv-x="1623" arabic-form="isolated" d="M142 118.5q-28 49.5 7 45.5q148 -21 390 -4l135 132q11 213 -11 445t-45 407.5t-28 195.5t2 37q39 94 46.5 104t19 9t14.5 -11q22 -55 36 -85.5t55 -75.5q15 -23 0 -42l-39 -51q-12 -16 -10 -35q46 -495 37.5 -646t-19.5 -203q253 198 361 249.5t186 61.5q42 5 95 -28 q111 -72 118 -133t-47 -166t-89 -141q-52 -54 -333 -140.5t-588 -100.5q-114 19 -189.5 72.5t-103.5 103zM659 174q422 47 674 180q-68 135 -302 64q-148 -45 -372 -244zM1027 971l100 149q5 8 17 4q81 -28 145 -85q9 -8 3 -18l-98 -155q-6 -9 -20.5 3t-143.5 90q-8 5 -3 12 z" />
</font>
</defs>
</svg>
